<svg width="11" height="11" viewBox="0 0 11 11" fill="none" xmlns="http://www.w3.org/2000/svg">
<path d="M5.01055 0.962852C5.15291 0.962024 5.29229 1.00361 5.41092 1.08231C5.52955 1.161 5.62206 1.27325 5.67665 1.40473C5.73125 1.53621 5.74544 1.68096 5.71744 1.82054C5.68944 1.96012 5.6205 2.0882 5.51943 2.18845L1.72078 5.97994L5.51943 9.77142C5.63684 9.90853 5.6982 10.0849 5.69123 10.2653C5.68427 10.4457 5.60949 10.6168 5.48184 10.7444C5.3542 10.8721 5.18309 10.9468 5.00271 10.9538C4.82232 10.9608 4.64595 10.8994 4.50884 10.782L0.208483 6.48165C0.0749918 6.34736 6.44312e-05 6.1657 6.44147e-05 5.97635C6.43981e-05 5.787 0.0749917 5.60535 0.208483 5.47106L4.50884 1.1707C4.64234 1.03829 4.82252 0.963643 5.01055 0.962852Z" fill="black"/>
<path d="M9.31084 0.962897C9.4532 0.96207 9.59258 1.00365 9.71122 1.08235C9.82985 1.16105 9.92236 1.27329 9.97695 1.40477C10.0315 1.53625 10.0457 1.68101 10.0177 1.82059C9.98973 1.96017 9.9208 2.08825 9.81972 2.1885L6.02107 5.97998L9.81972 9.77147C9.95468 9.90643 10.0305 10.0895 10.0305 10.2803C10.0305 10.4712 9.95468 10.6543 9.81972 10.7892C9.68476 10.9242 9.50171 11 9.31084 11C9.11998 11 8.93693 10.9242 8.80197 10.7892L4.50161 6.48886C4.36812 6.35457 4.29319 6.17292 4.29319 5.98357C4.29319 5.79422 4.36812 5.61256 4.50161 5.47827L8.80197 1.17791C8.86835 1.11019 8.9475 1.05632 9.03486 1.01941C9.12221 0.982499 9.21601 0.96329 9.31084 0.962897Z" fill="black"/>
</svg>
