<svg width="27" height="27" viewBox="0 0 27 27" fill="none" xmlns="http://www.w3.org/2000/svg">
<path d="M19.8823 22.9459L9.51801 25.2645C9.51295 25.2645 9.50367 25.2691 9.49903 25.2691C9.17742 25.3369 8.84204 25.2745 8.56633 25.0956C8.29062 24.9167 8.09705 24.6358 8.028 24.3144C8.02336 24.3102 8.02336 24.3102 8.02336 24.3056L5.91406 14.3037L7.01301 12.3437C7.10237 12.1859 7.22479 12.0493 7.37187 11.9432C7.51895 11.8371 7.68722 11.7641 7.86517 11.7291L10.3419 11.2494L13.0241 10.728L16.1948 10.1133C16.5437 10.0433 16.912 10.1319 17.1912 10.3509L18.7184 11.524L20.8319 21.4652C20.9003 21.7872 20.839 22.1233 20.6613 22.4005C20.4837 22.6776 20.2035 22.8736 19.8823 22.9459Z" fill="#FA990E"/>
<path d="M19.8814 22.9474L9.51626 25.2634C9.51204 25.2634 9.5036 25.2676 9.49939 25.2676C8.82863 25.4069 8.17053 24.985 8.02709 24.3142C8.02287 24.31 8.02287 24.31 8.02287 24.3058L5.91357 14.3035L18.717 11.5234L20.8305 21.4667C20.8997 21.7888 20.8387 22.1252 20.6609 22.4025C20.4831 22.6799 20.2029 22.8757 19.8814 22.9474Z" fill="#FBAD3E"/>
<path d="M10.6079 13.3063L13.6242 12.6094L16.1988 23.7537L13.1825 24.4506L10.6079 13.3063Z" fill="#B53016"/>
<path d="M16.6292 4.97533L15.2768 8.72693C15.2056 8.92476 15.0588 9.08627 14.8687 9.17603C14.6786 9.2658 14.4606 9.27648 14.2626 9.20575L7.15933 6.63282C6.96192 6.56008 6.80127 6.41227 6.71237 6.22159C6.62348 6.03092 6.61354 5.81284 6.68473 5.61487L8.03722 1.86369C8.07219 1.76554 8.1262 1.67525 8.19615 1.59802C8.2661 1.52079 8.35062 1.45813 8.44484 1.41364C8.53907 1.36916 8.64115 1.34371 8.74524 1.33878C8.84932 1.33384 8.95336 1.34951 9.05137 1.38488L16.1542 3.95696C16.2523 3.99257 16.3424 4.04716 16.4193 4.1176C16.4963 4.18804 16.5586 4.27296 16.6027 4.36749C16.6468 4.46203 16.6719 4.56434 16.6764 4.66856C16.681 4.77278 16.6649 4.87689 16.6292 4.97491V4.97533Z" fill="#617F4D"/>
<path d="M15.7894 5.37898L14.8888 7.87682C14.8037 7.84632 14.7135 7.83287 14.6233 7.83725C14.533 7.84162 14.4446 7.86374 14.3629 7.90233C14.2812 7.94092 14.2079 7.99523 14.1472 8.06215C14.0865 8.12907 14.0396 8.20729 14.0092 8.29235L7.93566 6.09277C7.9978 5.92107 7.98935 5.73174 7.91218 5.56624C7.83501 5.40075 7.6954 5.27259 7.52393 5.20982L8.4246 2.71241C8.50963 2.74291 8.59985 2.75636 8.69008 2.75198C8.78032 2.7476 8.8688 2.72549 8.95049 2.6869C9.03217 2.64831 9.10545 2.594 9.16614 2.52708C9.22683 2.46016 9.27373 2.38193 9.30418 2.29688L15.3777 4.49645C15.2486 4.85461 15.433 5.25032 15.7894 5.37941V5.37898Z" fill="#3D5E2A"/>
<path d="M9.53832 4.39318C9.5809 4.18144 9.44451 3.97543 9.23368 3.93303C9.02285 3.89064 8.81743 4.02792 8.77485 4.23966C8.73227 4.4514 8.86866 4.65742 9.07949 4.69981C9.29032 4.74221 9.49574 4.60492 9.53832 4.39318Z" fill="#255299"/>
<path d="M14.7258 6.27404C14.7684 6.0623 14.632 5.85629 14.4212 5.81389C14.2104 5.7715 14.0049 5.90878 13.9623 6.12052C13.9198 6.33226 14.0562 6.53827 14.267 6.58067C14.4778 6.62306 14.6832 6.48578 14.7258 6.27404Z" fill="#255299"/>
<path d="M12.9259 5.7407C13.201 4.96167 12.8552 4.12927 12.1535 3.88148C11.4518 3.63369 10.6599 4.06433 10.3848 4.84336C10.1097 5.62238 10.4556 6.45478 11.1572 6.70258C11.8589 6.95037 12.6508 6.51972 12.9259 5.7407Z" fill="#8A9BEA"/>
<path d="M12.005 5.64987C12.0015 5.55339 11.9693 5.46014 11.9126 5.38201C11.8558 5.30388 11.7772 5.2444 11.6865 5.21114C11.6273 5.19032 11.5755 5.15253 11.5377 5.1025C11.4998 5.05246 11.4775 4.99239 11.4735 4.92976C11.4695 4.86525 11.4842 4.80097 11.5159 4.74462C11.5475 4.68827 11.5948 4.64226 11.6519 4.6121C11.7127 4.58055 11.7812 4.56727 11.8494 4.57386C11.9175 4.58044 11.9823 4.60662 12.0358 4.64922C12.1497 4.73528 12.2084 4.89727 12.1712 5.05336C12.2463 4.91035 12.2172 4.71208 12.0936 4.58594C12.0633 4.55487 12.0287 4.52843 11.9907 4.50747C12.0199 4.48898 12.0434 4.46275 12.0586 4.43169C12.0738 4.40063 12.0801 4.36597 12.0767 4.33156C12.0727 4.29596 12.06 4.26191 12.0396 4.23242C12.0051 4.242 11.9735 4.25997 11.9477 4.28473C11.9234 4.30828 11.9061 4.33807 11.8977 4.37082C11.8892 4.40358 11.8901 4.43802 11.9 4.47035C11.8877 4.46698 11.8755 4.46234 11.8633 4.4598C11.7729 4.4421 11.6793 4.45195 11.5946 4.48807C11.4207 4.55768 11.3022 4.7454 11.3085 4.93777C11.3119 5.13098 11.4461 5.31196 11.627 5.37651C11.746 5.41574 11.8337 5.53133 11.8405 5.65747C11.8445 5.72208 11.8297 5.78646 11.798 5.84288C11.7662 5.89931 11.7189 5.94537 11.6616 5.97555C11.6009 6.00709 11.5323 6.02038 11.4642 6.01379C11.3961 6.0072 11.3313 5.98102 11.2777 5.93842C11.1638 5.85194 11.1052 5.69037 11.1427 5.53428C11.0677 5.67729 11.0963 5.87514 11.2199 6.00128C11.2498 6.03279 11.2844 6.05941 11.3225 6.08017C11.2931 6.09848 11.2696 6.12471 11.2545 6.15584C11.2394 6.18696 11.2334 6.22171 11.2372 6.25608C11.2413 6.29167 11.2541 6.3257 11.2744 6.35522C11.3087 6.3454 11.3402 6.32729 11.3659 6.30249C11.3858 6.28287 11.401 6.25905 11.4105 6.23277C11.42 6.20649 11.4235 6.17842 11.4207 6.15062C11.4191 6.13922 11.4167 6.12794 11.4136 6.11687C11.5123 6.14514 11.6216 6.1426 11.719 6.09915C11.8924 6.02955 12.0114 5.84224 12.005 5.64987Z" fill="white"/>
<path d="M9.44603 4.44006C9.48861 4.22832 9.35222 4.0223 9.1414 3.97991C8.93057 3.93751 8.72514 4.07479 8.68256 4.28653C8.63999 4.49827 8.77638 4.70429 8.9872 4.74669C9.19803 4.78908 9.40346 4.6518 9.44603 4.44006Z" fill="#8A9BEA"/>
<path d="M14.635 6.32092C14.6776 6.10918 14.5412 5.90316 14.3304 5.86077C14.1195 5.81837 13.9141 5.95565 13.8715 6.16739C13.829 6.37913 13.9653 6.58515 14.1762 6.62754C14.387 6.66994 14.5924 6.53266 14.635 6.32092Z" fill="#8A9BEA"/>
<path d="M17.3144 5.08042L15.276 8.49158C15.1678 8.6717 14.9927 8.80166 14.789 8.85304C14.5853 8.90443 14.3695 8.87306 14.1889 8.76579L7.69517 4.88468C7.51505 4.77651 7.38509 4.60142 7.33371 4.3977C7.28232 4.19398 7.3137 3.9782 7.42096 3.79754L9.45981 0.386381C9.51313 0.296933 9.58357 0.218882 9.6671 0.156695C9.75063 0.0945082 9.8456 0.0494079 9.94658 0.0239763C10.0476 -0.00145525 10.1526 -0.00671855 10.2556 0.0084878C10.3586 0.0236941 10.4576 0.0590714 10.5469 0.112594L17.0402 3.99328C17.4148 4.21687 17.5405 4.70201 17.3144 5.08042Z" fill="#AEC46E"/>
<path d="M16.4127 5.3159L15.0556 7.58719C14.899 7.4938 14.7118 7.46635 14.535 7.51088C14.3582 7.55541 14.2064 7.66828 14.1127 7.8247L8.55977 4.50677C8.6533 4.35017 8.68082 4.16284 8.63628 3.98596C8.59175 3.80908 8.4788 3.65712 8.32227 3.56349L9.67981 1.29219C9.83637 1.38559 10.0236 1.41303 10.2004 1.3685C10.3772 1.32397 10.529 1.21111 10.6227 1.05469L16.1748 4.37262C16.0812 4.52921 16.0537 4.71654 16.0983 4.89342C16.1428 5.0703 16.2562 5.22226 16.4127 5.3159Z" fill="#617F4D"/>
<path d="M14.838 6.2171C15.0533 6.2171 15.2278 6.04258 15.2278 5.8273C15.2278 5.61202 15.0533 5.4375 14.838 5.4375C14.6228 5.4375 14.4482 5.61202 14.4482 5.8273C14.4482 6.04258 14.6228 6.2171 14.838 6.2171Z" fill="#255299"/>
<path d="M13.5287 5.13799C13.9511 4.43126 13.7752 3.54842 13.1356 3.16612C12.4961 2.78382 11.6352 3.04682 11.2127 3.75355C10.7902 4.46028 10.9662 5.34312 11.6057 5.72542C12.2453 6.10772 13.1062 5.84472 13.5287 5.13799Z" fill="white"/>
<path d="M12.6431 4.85536C12.6768 4.66552 12.579 4.46303 12.4132 4.36473C12.359 4.33312 12.3153 4.28627 12.2875 4.23001C12.2598 4.17375 12.2492 4.11057 12.2571 4.04834C12.2654 3.98446 12.2921 3.92436 12.3339 3.87532C12.3756 3.82628 12.4307 3.7904 12.4925 3.77202C12.5583 3.75277 12.6282 3.75292 12.6939 3.77246C12.7596 3.79199 12.8183 3.83007 12.8629 3.88213C12.9582 3.98801 12.9852 4.1576 12.9194 4.30314C13.0202 4.17785 13.0291 3.97831 12.9321 3.83066C12.9079 3.79466 12.8786 3.76239 12.8451 3.7349C12.8773 3.7224 12.9054 3.70118 12.9262 3.6736C12.947 3.64603 12.9597 3.6132 12.9628 3.57881C12.9656 3.54315 12.9595 3.50735 12.9451 3.47461C12.9095 3.47745 12.8752 3.48905 12.8451 3.50836C12.8168 3.5268 12.7942 3.55273 12.7798 3.58327C12.7653 3.6138 12.7596 3.64774 12.7633 3.68132C12.7519 3.67499 12.7409 3.66867 12.7287 3.6636C12.6434 3.62894 12.5497 3.62057 12.4596 3.63956C12.2761 3.67415 12.1238 3.83488 12.0934 4.02429C12.0601 4.21413 12.1575 4.41705 12.3237 4.51492C12.433 4.57651 12.4967 4.70644 12.4798 4.83131C12.4715 4.89525 12.4449 4.95541 12.4031 5.00453C12.3613 5.05364 12.3062 5.0896 12.2444 5.10805C12.1786 5.1273 12.1087 5.12715 12.043 5.10762C11.9773 5.08809 11.9186 5.05 11.874 4.99795C11.8253 4.94035 11.7941 4.87002 11.7841 4.79527C11.7741 4.72053 11.7857 4.64447 11.8175 4.57609C11.7167 4.7018 11.7078 4.90134 11.8053 5.04857C11.8286 5.08504 11.8575 5.11764 11.8909 5.14518C11.8586 5.15746 11.8305 5.17864 11.8098 5.20628C11.7892 5.23391 11.7767 5.26685 11.774 5.30126C11.7714 5.33678 11.7775 5.37241 11.7918 5.40504C11.8273 5.40213 11.8617 5.39054 11.8917 5.37129C11.915 5.35597 11.9345 5.33562 11.9488 5.31174C11.9631 5.28786 11.9719 5.26107 11.9744 5.23334C11.9751 5.22168 11.975 5.20998 11.974 5.19833C12.0651 5.24558 12.1731 5.26372 12.2773 5.24009C12.3698 5.21998 12.4541 5.17255 12.5193 5.10395C12.5846 5.03535 12.6277 4.94874 12.6431 4.85536Z" fill="#617F4D"/>
<path d="M9.99771 3.41241C10.213 3.41241 10.3875 3.23789 10.3875 3.02261C10.3875 2.80733 10.213 2.63281 9.99771 2.63281C9.78243 2.63281 9.60791 2.80733 9.60791 3.02261C9.60791 3.23789 9.78243 3.41241 9.99771 3.41241Z" fill="white"/>
<path d="M14.7394 6.24444C14.9547 6.24444 15.1292 6.06992 15.1292 5.85464C15.1292 5.63936 14.9547 5.46484 14.7394 5.46484C14.5241 5.46484 14.3496 5.63936 14.3496 5.85464C14.3496 6.06992 14.5241 6.24444 14.7394 6.24444Z" fill="white"/>
<path d="M9.91009 20.7795L1.64585 16.0926C1.55293 16.04 1.44851 16.0109 1.34175 16.008C1.23499 16.0052 1.12916 16.0285 1.03354 16.0761C0.937918 16.1237 0.85543 16.194 0.793312 16.2808C0.731194 16.3677 0.691344 16.4685 0.677259 16.5744L0.00565823 21.6476C-0.0335748 21.9446 0.134325 22.2298 0.412753 22.3403L3.74713 23.6595C4.82087 24.0843 5.96519 24.3024 7.11991 24.3024H8.69471L9.91009 20.7795Z" fill="#51504F"/>
<path d="M26.9988 7.5893C27.0046 7.65222 26.9882 7.71519 26.9525 7.76728C26.9167 7.81938 26.8639 7.85731 26.8031 7.87448C24.7224 8.39548 22.3301 7.81205 22.3301 7.81205V4.30639C23.564 4.30639 25.4173 3.14796 26.2061 2.64848C26.3749 2.54217 26.598 2.65354 26.6111 2.8535L26.9988 7.5893Z" fill="#4269C4"/>
<path d="M21.1096 4.68806L20.9269 6.98256L18.4768 7.25846C17.6966 7.34581 16.9078 7.20668 16.2046 6.85769L15.1221 6.32319C14.7826 6.1555 14.4219 6.03487 14.0498 5.96461L13.0238 5.77056C12.6665 5.70306 12.5045 5.27993 12.7277 4.99307C12.8814 4.79363 13.0925 4.646 13.3326 4.56999C13.5727 4.49398 13.8303 4.49323 14.0709 4.56783L14.3383 4.64799C15.3445 4.9319 16.0013 4.95383 16.4307 4.86398C16.9543 4.75429 17.0754 4.06118 16.6219 3.77727L15.2959 2.9462C15.514 2.7667 15.7856 2.66487 16.0679 2.65677C16.3502 2.64868 16.6272 2.73477 16.8551 2.90148L19.1003 4.5324C19.3615 4.72295 19.6825 4.8131 20.0047 4.78636L21.1096 4.68806Z" fill="#FFCECF"/>
<path d="M23.0281 8.2614C23.0408 8.44702 22.8847 8.59889 22.6991 8.58201L21.3491 8.45545C21.2811 8.449 21.2173 8.41959 21.1682 8.37205C21.1192 8.32451 21.0877 8.26168 21.0791 8.1939L20.5982 4.37607C20.5901 4.30584 20.6067 4.23497 20.6452 4.17567C20.6837 4.11637 20.7417 4.07237 20.8091 4.05123L22.3489 3.57875C22.5346 3.51969 22.7244 3.65047 22.737 3.84452L23.0281 8.2614Z" fill="#8A9BEA"/>
<path d="M21.7196 7.8796C21.929 7.8796 22.0988 7.7098 22.0988 7.50035C22.0988 7.29089 21.929 7.12109 21.7196 7.12109C21.5101 7.12109 21.3403 7.29089 21.3403 7.50035C21.3403 7.7098 21.5101 7.8796 21.7196 7.8796Z" fill="white"/>
<path d="M18.1965 23.3232C18.1265 24.5993 17.3304 24.52 17.2465 24.52H17.2418C17.2171 24.5813 17.1874 24.6405 17.1532 24.6972C16.8972 25.1485 16.5947 25.1717 16.534 25.1717H16.5247C16.4997 25.2339 16.4633 25.2908 16.4175 25.3396C16.1104 25.6792 15.4072 25.7818 15.4072 25.7818C15.4072 25.7864 15.4029 25.7864 15.4029 25.791C15.3659 25.8542 15.3205 25.9121 15.268 25.9632H15.2629C15.1001 26.1357 14.8625 26.2331 14.625 26.2331C14.49 26.2331 14.355 26.2011 14.2293 26.1357L13.0561 25.535C12.3905 25.196 11.6993 24.9097 10.989 24.6786L9.86182 24.3061L10.6718 21.4564L11.4354 21.7914C11.8593 21.9728 12.339 21.9686 12.7532 21.7543L14.4483 20.8882C14.6327 20.7945 14.834 20.7388 15.0403 20.7244C15.2466 20.7101 15.4537 20.7374 15.6493 20.8047L17.7915 21.54C17.8693 21.5692 17.9362 21.6215 17.9836 21.6898C18.0309 21.758 18.0563 21.8391 18.0564 21.9222C18.0564 21.9728 18.0429 22.0382 18.0193 22.0896C17.9453 22.2438 17.829 22.3738 17.6839 22.4645C17.5389 22.5551 17.3711 22.6027 17.2001 22.6018C17.1019 22.6023 17.0042 22.5866 16.9111 22.5554C16.6524 22.472 16.3772 22.453 16.1094 22.5C15.8417 22.5471 15.5895 22.6587 15.3747 22.8254V22.83L18.1965 23.3232Z" fill="#FFCECF"/>
<path d="M11.9458 21.4788L10.5789 25.1532C10.4904 25.3768 10.2626 25.4907 10.0347 25.4232L8.94213 25.1153C8.8868 25.1015 8.83476 25.0769 8.78903 25.0428C8.7433 25.0088 8.70479 24.966 8.67574 24.9169C8.6467 24.8678 8.62769 24.8135 8.61983 24.757C8.61197 24.7005 8.61541 24.6431 8.62996 24.5879L9.51586 20.7743C9.58336 20.5296 9.83226 20.382 10.0769 20.4537L11.6463 20.8882C11.8952 20.9599 12.0301 21.2257 11.9458 21.4788Z" fill="#3A3A3A"/>
<path d="M9.8621 24.6392C10.0478 24.6392 10.1983 24.4887 10.1983 24.303C10.1983 24.1173 10.0478 23.9668 9.8621 23.9668C9.67641 23.9668 9.52588 24.1173 9.52588 24.303C9.52588 24.4887 9.67641 24.6392 9.8621 24.6392Z" fill="white"/>
<path d="M17.242 24.5197C17.2172 24.581 17.1876 24.6403 17.1534 24.6969C17.0261 24.6576 16.9017 24.6092 16.7813 24.5522C16.4784 24.3986 16.1945 24.1843 16.0034 23.9004C16.162 23.9704 16.3012 24.0544 16.4506 24.124L16.8834 24.3429L17.242 24.5197ZM16.5341 25.1715H16.5248C16.4998 25.2336 16.4635 25.2905 16.4177 25.3394C16.2946 25.3025 16.1747 25.2558 16.0591 25.1997C15.7566 25.0457 15.4773 24.8365 15.2816 24.5522C15.4402 24.6176 15.5845 24.7011 15.7288 24.7758L16.162 24.9901L16.5341 25.1715ZM15.4027 25.7907C15.3656 25.8539 15.3202 25.9118 15.2677 25.9629H15.2635C15.1823 25.9337 15.103 25.8996 15.026 25.8608C14.7231 25.7114 14.4438 25.4976 14.248 25.2136C14.4067 25.2832 14.5509 25.3672 14.6952 25.4372L15.128 25.6558L15.4027 25.7907Z" fill="#FEA9AD"/>
<path d="M13.6336 12.6096L10.6165 13.3082L10.3423 11.2499L13.024 10.7285L13.6336 12.6096Z" fill="#912010"/>
</svg>
