<svg width="26" height="26" viewBox="0 0 26 26" fill="none" xmlns="http://www.w3.org/2000/svg">
<path d="M1.09861 3.18701e-08C0.807241 3.18701e-08 0.527805 0.115746 0.321776 0.321776C0.115746 0.527805 0 0.807241 0 1.09861C0 1.38998 0.115746 1.66942 0.321776 1.87545C0.527805 2.08148 0.807241 2.19722 1.09861 2.19722H3.05414C3.21383 2.1975 3.3694 2.24791 3.4989 2.34134C3.62841 2.43478 3.72531 2.56651 3.77593 2.71796L7.39805 13.5865C7.55955 14.0699 7.57932 14.5885 7.45628 15.0828L7.15855 16.277C6.72021 18.0282 8.08358 19.775 9.8875 19.775H23.0708C23.3622 19.775 23.6416 19.6593 23.8477 19.4532C24.0537 19.2472 24.1694 18.9678 24.1694 18.6764C24.1694 18.385 24.0537 18.1056 23.8477 17.8996C23.6416 17.6935 23.3622 17.5778 23.0708 17.5778H9.8875C9.45904 17.5778 9.18439 17.2262 9.28876 16.812L9.51397 15.9134C9.55192 15.7614 9.63954 15.6264 9.76294 15.5299C9.88634 15.4333 10.0384 15.3808 10.1951 15.3806H21.9722C22.2031 15.3808 22.4282 15.3084 22.6155 15.1735C22.8029 15.0386 22.943 14.8481 23.0159 14.6291L25.9437 5.84022C25.9987 5.67506 26.0137 5.4992 25.9874 5.32712C25.9611 5.15504 25.8943 4.99167 25.7925 4.85047C25.6907 4.70928 25.5567 4.5943 25.4018 4.51501C25.2468 4.43573 25.0752 4.3944 24.9011 4.39445H7.2014C7.04152 4.3944 6.8857 4.34409 6.75598 4.25065C6.62626 4.1572 6.52919 4.02533 6.47851 3.8737L5.43703 0.75145C5.36414 0.5326 5.22421 0.342246 5.03708 0.207371C4.84995 0.0724964 4.62511 -5.55135e-05 4.39445 3.18701e-08H1.09861ZM8.78889 20.8736C8.20615 20.8736 7.64728 21.1051 7.23522 21.5172C6.82316 21.9292 6.59167 22.4881 6.59167 23.0708C6.59167 23.6536 6.82316 24.2125 7.23522 24.6245C7.64728 25.0366 8.20615 25.2681 8.78889 25.2681C9.37163 25.2681 9.9305 25.0366 10.3426 24.6245C10.7546 24.2125 10.9861 23.6536 10.9861 23.0708C10.9861 22.4881 10.7546 21.9292 10.3426 21.5172C9.9305 21.1051 9.37163 20.8736 8.78889 20.8736ZM21.9722 20.8736C21.3895 20.8736 20.8306 21.1051 20.4186 21.5172C20.0065 21.9292 19.775 22.4881 19.775 23.0708C19.775 23.6536 20.0065 24.2125 20.4186 24.6245C20.8306 25.0366 21.3895 25.2681 21.9722 25.2681C22.555 25.2681 23.1138 25.0366 23.5259 24.6245C23.938 24.2125 24.1694 23.6536 24.1694 23.0708C24.1694 22.4881 23.938 21.9292 23.5259 21.5172C23.1138 21.1051 22.555 20.8736 21.9722 20.8736Z" fill="#363744"/>
</svg>
