<svg width="20" height="20" viewBox="0 0 20 20" fill="none" xmlns="http://www.w3.org/2000/svg">
<path d="M10 0C4.48578 0 0 4.48578 0 10C0 15.5142 4.48578 20 10 20C15.5142 20 20 15.5142 20 10C20 4.48578 15.5142 0 10 0ZM14.7559 15.1724C14.6786 15.2499 14.5868 15.3114 14.4857 15.3533C14.3846 15.3953 14.2762 15.4168 14.1667 15.4167C14.0573 15.4168 13.9489 15.3953 13.8478 15.3534C13.7467 15.3114 13.6548 15.2499 13.5776 15.1724L9.41086 11.0059C9.33331 10.9286 9.27182 10.8368 9.22992 10.7357C9.18801 10.6346 9.16654 10.5262 9.16672 10.4167V5C9.16672 4.53918 9.53996 4.16672 10 4.16672C10.46 4.16672 10.8333 4.53918 10.8333 5V10.0717L14.7559 13.9941C15.0816 14.3201 15.0816 14.8466 14.7559 15.1724Z" fill="#363744"/>
</svg>
