<svg width="16" height="16" viewBox="0 0 16 16" fill="none" xmlns="http://www.w3.org/2000/svg">
<path d="M7.62794 8.18606C9.88845 8.18606 11.721 6.35355 11.721 4.09304C11.721 1.83252 9.88845 1.52588e-05 7.62794 1.52588e-05C5.36742 1.52588e-05 3.53491 1.83252 3.53491 4.09304C3.53491 6.35355 5.36742 8.18606 7.62794 8.18606Z" fill="#363744"/>
<path fill-rule="evenodd" clip-rule="evenodd" d="M8.69284 15.2647C7.88761 14.4051 7.44026 13.2709 7.44186 12.093C7.44186 10.842 7.93674 9.70641 8.74046 8.86995C8.37028 8.84177 7.99916 8.82762 7.62791 8.82753C5.15572 8.82753 2.96707 9.44595 1.60819 10.3725C0.571535 11.0794 0 11.9777 0 12.9206V14.0004C0 14.3359 0.133289 14.6577 0.370544 14.8949C0.607799 15.1322 0.929587 15.2655 1.26512 15.2655L8.69284 15.2647Z" fill="#363744"/>
<path fill-rule="evenodd" clip-rule="evenodd" d="M12.093 8.18605C9.93636 8.18605 8.18604 9.93638 8.18604 12.093C8.18604 14.2497 9.93636 16 12.093 16C14.2497 16 16 14.2497 16 12.093C16 9.93638 14.2497 8.18605 12.093 8.18605ZM12.6512 11.5349V10.7907C12.6512 10.6427 12.5923 10.5007 12.4877 10.396C12.383 10.2914 12.241 10.2326 12.093 10.2326C11.945 10.2326 11.803 10.2914 11.6983 10.396C11.5937 10.5007 11.5349 10.6427 11.5349 10.7907V11.5349H10.7907C10.6427 11.5349 10.5007 11.5937 10.396 11.6984C10.2914 11.803 10.2325 11.945 10.2325 12.093C10.2325 12.2411 10.2914 12.383 10.396 12.4877C10.5007 12.5924 10.6427 12.6512 10.7907 12.6512H11.5349V13.3954C11.5349 13.5434 11.5937 13.6853 11.6983 13.79C11.803 13.8947 11.945 13.9535 12.093 13.9535C12.241 13.9535 12.383 13.8947 12.4877 13.79C12.5923 13.6853 12.6512 13.5434 12.6512 13.3954V12.6512H13.3953C13.5434 12.6512 13.6853 12.5924 13.79 12.4877C13.8947 12.383 13.9535 12.2411 13.9535 12.093C13.9535 11.945 13.8947 11.803 13.79 11.6984C13.6853 11.5937 13.5434 11.5349 13.3953 11.5349H12.6512Z" fill="#363744"/>
</svg>
