<svg width="30" height="30" viewBox="0 0 30 30" fill="none" xmlns="http://www.w3.org/2000/svg">
<circle cx="15" cy="15" r="15" fill="#FFE3E3"/>
<path fill-rule="evenodd" clip-rule="evenodd" d="M12.0883 6.4858C12.0883 6.35708 12.1395 6.23363 12.2305 6.14259C12.3214 6.05155 12.4449 6.00036 12.5736 6.00027L17.4261 6C17.5549 6.0003 17.6782 6.05163 17.7692 6.14274C17.8602 6.23386 17.9113 6.35732 17.9114 6.48607V7.68619H12.0883V6.4858ZM20.0668 22.8023C20.0544 22.9916 19.9702 23.1689 19.8313 23.2981C19.6925 23.4272 19.5095 23.4984 19.3199 23.4971H10.624C10.4345 23.4966 10.2521 23.4244 10.1136 23.295C9.97503 23.1655 9.89058 22.9885 9.87719 22.7994L9.13307 11.9141H20.861L20.067 22.8022L20.0668 22.8023ZM22 10.9282H8V9.80045C8.00021 9.50134 8.1191 9.21454 8.33058 9.00302C8.54206 8.7915 8.82883 8.67254 9.12794 8.67227L20.8719 8.67189C21.171 8.67235 21.4577 8.79141 21.6691 9.00296C21.8805 9.21451 21.9994 9.50127 21.9997 9.80035V10.9281L22 10.9282ZM12.7458 20.9022C12.7458 20.9669 12.7585 21.031 12.7833 21.0908C12.8081 21.1506 12.8444 21.2049 12.8902 21.2507C12.9359 21.2965 12.9903 21.3328 13.05 21.3575C13.1098 21.3823 13.1739 21.3951 13.2387 21.3951C13.3034 21.3951 13.3675 21.3823 13.4273 21.3575C13.4871 21.3328 13.5414 21.2965 13.5872 21.2507C13.6329 21.2049 13.6692 21.1506 13.694 21.0908C13.7188 21.031 13.7315 20.9669 13.7315 20.9022V13.9904C13.7305 13.8604 13.6781 13.7361 13.5859 13.6446C13.4936 13.553 13.3689 13.5016 13.2389 13.5015C13.1089 13.5015 12.9842 13.5528 12.8919 13.6443C12.7995 13.7358 12.7471 13.8601 12.746 13.9901V20.9022H12.7458ZM16.2624 20.9022C16.2624 21.0329 16.3143 21.1583 16.4068 21.2507C16.4992 21.3432 16.6246 21.3951 16.7553 21.3951C16.8861 21.3951 17.0114 21.3432 17.1039 21.2507C17.1963 21.1583 17.2483 21.0329 17.2483 20.9022V13.9904C17.2472 13.8604 17.1949 13.7361 17.1026 13.6445C17.0103 13.5529 16.8856 13.5015 16.7556 13.5015C16.6256 13.5014 16.5008 13.5528 16.4085 13.6443C16.3161 13.7358 16.2637 13.8601 16.2626 13.9901L16.2624 20.9022Z" fill="#D30404"/>
</svg>
