<svg width="75" height="58" viewBox="0 0 75 58" fill="none" xmlns="http://www.w3.org/2000/svg">
<rect y="12" width="55" height="46" rx="8" fill="#98FF98"/>
<path d="M24.3751 34.7143H18.5894C18.2058 34.7143 17.8379 34.5619 17.5666 34.2906C17.2954 34.0194 17.143 33.6515 17.143 33.2679C17.143 32.8842 17.2954 32.5163 17.5666 32.2451C17.8379 31.9738 18.2058 31.8214 18.5894 31.8214H24.3751C24.7587 31.8214 25.1266 31.9738 25.3979 32.2451C25.6692 32.5163 25.8215 32.8842 25.8215 33.2679C25.8215 33.6515 25.6692 34.0194 25.3979 34.2906C25.1266 34.5619 24.7587 34.7143 24.3751 34.7143ZM71.3841 34.7143H67.768C67.3844 34.7143 67.0165 34.5619 66.7452 34.2906C66.4739 34.0194 66.3216 33.6515 66.3216 33.2679C66.3216 32.8842 66.4739 32.5163 66.7452 32.2451C67.0165 31.9738 67.3844 31.8214 67.768 31.8214H70.1835L72.1333 21.4303C72.1073 16.1132 67.5655 11.5714 61.9823 11.5714H52.485L47.8825 31.8214H56.1966C56.5802 31.8214 56.9481 31.9738 57.2193 32.2451C57.4906 32.5163 57.643 32.8842 57.643 33.2679C57.643 33.6515 57.4906 34.0194 57.2193 34.2906C56.9481 34.5619 56.5802 34.7143 56.1966 34.7143H46.0716C45.8545 34.7144 45.6402 34.6657 45.4446 34.5717C45.2489 34.4777 45.0769 34.3409 44.9414 34.1714C44.8058 34.002 44.7101 33.8041 44.6613 33.5926C44.6126 33.3811 44.6121 33.1614 44.6598 32.9496L49.9191 9.80679C49.9913 9.48639 50.1705 9.20013 50.427 8.99508C50.6836 8.79003 51.0023 8.67841 51.3308 8.67857H61.9823C69.1594 8.67857 75.0001 14.5193 75.0001 21.6964L72.8044 33.534C72.7429 33.8657 72.5672 34.1654 72.3077 34.381C72.0482 34.5966 71.7214 34.7145 71.3841 34.7143Z" fill="black"/>
<path d="M61.9823 40.5C57.9959 40.5 54.7501 37.2571 54.7501 33.2679C54.7501 29.2786 57.9959 26.0357 61.9823 26.0357C65.9686 26.0357 69.2144 29.2786 69.2144 33.2679C69.2144 37.2571 65.9686 40.5 61.9823 40.5ZM61.9823 28.9286C59.5899 28.9286 57.643 30.8755 57.643 33.2679C57.643 35.6603 59.5899 37.6071 61.9823 37.6071C64.3746 37.6071 66.3215 35.6603 66.3215 33.2679C66.3215 30.8755 64.3746 28.9286 61.9823 28.9286ZM30.1608 40.5C26.1745 40.5 22.9287 37.2571 22.9287 33.2679C22.9287 29.2786 26.1745 26.0357 30.1608 26.0357C34.1472 26.0357 37.393 29.2786 37.393 33.2679C37.393 37.2571 34.1472 40.5 30.1608 40.5ZM30.1608 28.9286C27.7684 28.9286 25.8215 30.8755 25.8215 33.2679C25.8215 35.6603 27.7684 37.6071 30.1608 37.6071C32.5532 37.6071 34.5001 35.6603 34.5001 33.2679C34.5001 30.8755 32.5532 28.9286 30.1608 28.9286ZM24.3751 8.67857H12.8037C12.4201 8.67857 12.0522 8.52618 11.7809 8.25492C11.5096 7.98366 11.3572 7.61576 11.3572 7.23214C11.3572 6.84853 11.5096 6.48062 11.7809 6.20936C12.0522 5.9381 12.4201 5.78571 12.8037 5.78571H24.3751C24.7587 5.78571 25.1266 5.9381 25.3979 6.20936C25.6691 6.48062 25.8215 6.84853 25.8215 7.23214C25.8215 7.61576 25.6691 7.98366 25.3979 8.25492C25.1266 8.52618 24.7587 8.67857 24.3751 8.67857ZM24.3751 17.3571H9.91082C9.5272 17.3571 9.1593 17.2048 8.88804 16.9335C8.61678 16.6622 8.46439 16.2943 8.46439 15.9107C8.46439 15.5271 8.61678 15.1592 8.88804 14.8879C9.1593 14.6167 9.5272 14.4643 9.91082 14.4643H24.3751C24.7587 14.4643 25.1266 14.6167 25.3979 14.8879C25.6691 15.1592 25.8215 15.5271 25.8215 15.9107C25.8215 16.2943 25.6691 16.6622 25.3979 16.9335C25.1266 17.2048 24.7587 17.3571 24.3751 17.3571ZM24.3751 26.0357H7.01796C6.63435 26.0357 6.26644 25.8833 5.99518 25.6121C5.72392 25.3408 5.57153 24.9729 5.57153 24.5893C5.57153 24.2057 5.72392 23.8378 5.99518 23.5665C6.26644 23.2952 6.63435 23.1429 7.01796 23.1429H24.3751C24.7587 23.1429 25.1266 23.2952 25.3979 23.5665C25.6691 23.8378 25.8215 24.2057 25.8215 24.5893C25.8215 24.9729 25.6691 25.3408 25.3979 25.6121C25.1266 25.8833 24.7587 26.0357 24.3751 26.0357Z" fill="black"/>
<path d="M46.0715 34.7143H35.9465C35.5629 34.7143 35.195 34.5619 34.9238 34.2906C34.6525 34.0194 34.5001 33.6515 34.5001 33.2679C34.5001 32.8842 34.6525 32.5163 34.9238 32.2451C35.195 31.9738 35.5629 31.8214 35.9465 31.8214H44.9173L51.4899 2.89286H18.5894C18.2058 2.89286 17.8379 2.74047 17.5666 2.46921C17.2954 2.19795 17.143 1.83005 17.143 1.44643C17.143 1.06281 17.2954 0.694908 17.5666 0.42365C17.8379 0.152392 18.2058 1.80947e-07 18.5894 1.80947e-07H53.3037C53.5207 -0.000108375 53.735 0.0486289 53.9307 0.142601C54.1263 0.236573 54.2983 0.37337 54.4339 0.542852C54.5695 0.712335 54.6652 0.910158 54.7139 1.12166C54.7626 1.33316 54.7632 1.55292 54.7154 1.76464L47.4833 33.5861C47.411 33.9065 47.2319 34.1927 46.9753 34.3978C46.7187 34.6028 46.4 34.7145 46.0715 34.7143Z" fill="black"/>
</svg>
