<svg width="20" height="20" viewBox="0 0 20 20" fill="none" xmlns="http://www.w3.org/2000/svg">
<path d="M12.3357 14.0493C12.6593 14.0493 12.9216 13.7869 12.9216 13.4633C12.9216 13.1397 12.6593 12.8774 12.3357 12.8774C12.0121 12.8774 11.7498 13.1397 11.7498 13.4633C11.7498 13.7869 12.0121 14.0493 12.3357 14.0493Z" fill="#363744"/>
<path d="M7.65137 7.02291C7.97497 7.02291 8.2373 6.76058 8.2373 6.43697C8.2373 6.11337 7.97497 5.85104 7.65137 5.85104C7.32776 5.85104 7.06543 6.11337 7.06543 6.43697C7.06543 6.76058 7.32776 7.02291 7.65137 7.02291Z" fill="#363744"/>
<path d="M19.0722 8.62885C18.4078 8.19427 18.1585 7.26281 18.5159 6.55318C18.8286 5.93393 18.8618 5.40215 18.6136 4.97272C18.3655 4.54329 17.8886 4.30599 17.1956 4.26653C16.4025 4.22191 15.7209 3.54032 15.6763 2.74665C15.6368 2.0542 15.3995 1.5773 14.9701 1.32916C14.5406 1.08272 14.0089 1.11473 13.3896 1.42694C12.68 1.78146 11.7479 1.53503 11.3134 0.870567C10.5529 -0.290189 9.43329 -0.290189 8.67281 0.870567C8.23768 1.53444 7.30676 1.78318 6.59659 1.42694C5.97675 1.11473 5.44497 1.08272 5.01613 1.32916C4.5867 1.5773 4.3494 2.0542 4.30994 2.74723C4.26532 3.54032 3.58372 4.22191 2.79005 4.26653C2.09761 4.30599 1.62071 4.54329 1.37256 4.97272C1.12441 5.40215 1.15756 5.93393 1.47035 6.55318C1.82772 7.26281 1.57844 8.19427 0.913389 8.6294C0.333518 9.01027 0 9.45398 0 9.94973C0 10.4455 0.333518 10.8898 0.913897 11.27C1.57832 11.7052 1.82764 12.6367 1.47027 13.3462C1.15748 13.9655 1.12434 14.4973 1.37248 14.9267C1.62063 15.3561 2.09753 15.5934 2.79056 15.6329C3.58364 15.6775 4.26524 16.3591 4.30986 17.1528C4.34932 17.8452 4.58662 18.3221 5.01605 18.5703C5.44606 18.8179 5.97667 18.7847 6.59651 18.4725C7.30614 18.1157 8.23701 18.3638 8.67273 19.0294C9.05356 19.6093 9.49727 19.9818 9.99302 19.9818C10.4888 19.9818 10.9325 19.6092 11.3139 19.0289C11.7479 18.3633 12.6777 18.1128 13.3896 18.4725C14.0088 18.7847 14.5423 18.8179 14.97 18.5703C15.3995 18.3221 15.6368 17.8452 15.6762 17.1522C15.7208 16.3591 16.4024 15.6775 17.1961 15.6329C17.8886 15.5934 18.3654 15.3561 18.6136 14.9267C18.8617 14.4973 18.8286 13.9655 18.5158 13.3462C18.1584 12.6366 18.4077 11.7052 19.0722 11.27C19.6526 10.8898 19.9861 10.4455 19.9861 9.94973C19.9861 9.45398 19.6526 9.01027 19.0722 8.62885ZM7.65094 4.67995C8.61956 4.67995 9.40753 5.46792 9.40753 6.43655C9.40753 7.40517 8.61956 8.19314 7.65094 8.19314C6.68231 8.19314 5.89434 7.40517 5.89434 6.43655C5.89434 5.46792 6.68231 4.67995 7.65094 4.67995ZM6.94818 14.9851L6.01157 14.2829L13.0379 4.9144L13.9746 5.61657L6.94818 14.9851ZM12.3352 15.2195C11.3666 15.2195 10.5786 14.4315 10.5786 13.4629C10.5786 12.4943 11.3666 11.7063 12.3352 11.7063C13.3038 11.7063 14.0918 12.4943 14.0918 13.4629C14.0918 14.4315 13.3038 15.2195 12.3352 15.2195Z" fill="#363744"/>
</svg>
