<svg width="17" height="12" viewBox="0 0 17 12" fill="none" xmlns="http://www.w3.org/2000/svg">
<path d="M10.8569 6.58618L9.45364 7.99424C8.88457 8.5653 7.8833 8.5776 7.30193 7.99424L5.89855 6.58618L0.858276 11.6428C1.04589 11.7296 1.25275 11.7813 1.47267 11.7813H15.2829C15.5028 11.7813 15.7096 11.7296 15.8972 11.6429L10.8569 6.58618Z" fill="#363744"/>
<path d="M15.2829 0H1.47265C1.25274 0 1.04588 0.0517721 0.858329 0.138528L6.24422 5.54229C6.24458 5.54265 6.24501 5.54271 6.24537 5.54307C6.24559 5.54331 6.24574 5.5436 6.24579 5.54392L7.99704 7.30097C8.18305 7.48698 8.57255 7.48698 8.75857 7.30097L10.5095 5.54422C10.5095 5.54422 10.5099 5.54343 10.5102 5.54307C10.5102 5.54307 10.511 5.54265 10.5114 5.54229L15.8971 0.138495C15.7096 0.0517066 15.5028 0 15.2829 0ZM0.156625 0.825079C0.0595607 1.02137 0 1.23926 0 1.47265V10.3086C0 10.542 0.0594953 10.7599 0.156592 10.9562L5.20561 5.89078L0.156625 0.825079ZM16.5989 0.825014L11.55 5.89078L16.5989 10.9562C16.696 10.7599 16.7555 10.542 16.7555 10.3086V1.47265C16.7555 1.23919 16.696 1.0213 16.5989 0.825014Z" fill="#363744"/>
</svg>
