<svg width="67" height="60" viewBox="0 0 67 60" fill="none" xmlns="http://www.w3.org/2000/svg">
<rect y="14" width="55" height="46" rx="8" fill="#98FF98"/>
<path d="M59.1494 2H65V7.85062M23.8506 2H18V7.85062M59.1494 49H65V43.1494M23.8506 49H18V43.1494M65 25.5C65 25.5 54.4787 37.2012 41.5 37.2012C28.5213 37.2012 18 25.5 18 25.5C18 25.5 28.5213 13.7988 41.5 13.7988C54.4787 13.7988 65 25.5 65 25.5Z" stroke="black" stroke-width="3" stroke-miterlimit="10" stroke-linecap="round" stroke-linejoin="round"/>
<path d="M41.5002 37.2013C47.9626 37.2013 53.2014 31.9625 53.2014 25.5001C53.2014 19.0377 47.9626 13.7988 41.5002 13.7988C35.0377 13.7988 29.7989 19.0377 29.7989 25.5001C29.7989 31.9625 35.0377 37.2013 41.5002 37.2013Z" stroke="black" stroke-width="3" stroke-miterlimit="10" stroke-linecap="round" stroke-linejoin="round"/>
<path d="M41.5 30.3755C44.1927 30.3755 46.3755 28.1927 46.3755 25.5C46.3755 22.8074 44.1927 20.6245 41.5 20.6245C38.8073 20.6245 36.6245 22.8074 36.6245 25.5C36.6245 28.1927 38.8073 30.3755 41.5 30.3755Z" stroke="black" stroke-width="3" stroke-miterlimit="10" stroke-linecap="round" stroke-linejoin="round"/>
</svg>
