<svg width="32" height="32" viewBox="0 0 32 32" fill="none" xmlns="http://www.w3.org/2000/svg">
<circle cx="15.5455" cy="15.5455" r="15.5455" fill="white"/>
<path d="M31.0909 15.5455C31.0909 6.95902 24.1319 0 15.5455 0C6.95902 0 0 6.95902 0 15.5455C0 24.1319 6.95902 31.0909 15.5455 31.0909C15.6365 31.0909 15.7276 31.0909 15.8187 31.0848V18.9885H12.4789V15.0961H15.8187V12.2299C15.8187 8.90827 17.8469 7.09869 20.8103 7.09869C22.2312 7.09869 23.4518 7.20192 23.804 7.2505V10.7239H21.7636C20.1544 10.7239 19.8387 11.4891 19.8387 12.6125V15.09H23.6947L23.1907 18.9825H19.8387V30.4897C26.3362 28.6255 31.0909 22.6441 31.0909 15.5455Z" fill="#363744"/>
</svg>
