<svg width="32" height="32" viewBox="0 0 32 32" fill="none" xmlns="http://www.w3.org/2000/svg">
<circle cx="15.6364" cy="15.5455" r="15.5455" fill="white"/>
<path d="M15.6364 0C7.05221 0 0.0909424 6.96127 0.0909424 15.5455C0.0909424 24.1296 7.05221 31.0909 15.6364 31.0909C24.2206 31.0909 31.1819 24.1296 31.1819 15.5455C31.1819 6.96127 24.2206 0 15.6364 0ZM11.1191 23.5004H7.33306V12.11H11.119L11.1191 23.5004ZM9.22614 10.5546H9.20149C7.93101 10.5546 7.10935 9.68008 7.10935 8.58704C7.10935 7.46935 7.95615 6.61896 9.25134 6.61896C10.5465 6.61896 11.3435 7.46935 11.3681 8.58704C11.3681 9.68008 10.5465 10.5547 9.22614 10.5547V10.5546ZM24.7707 23.5004H20.9852V17.4068C20.9852 15.8754 20.437 14.831 19.0671 14.831C18.0213 14.831 17.3984 15.5355 17.1247 16.2155C17.0246 16.4589 17.0001 16.7991 17.0001 17.1395V23.5004H13.2143C13.2143 23.5004 13.264 13.1786 13.2143 12.11H17.0001V13.7227C17.5032 12.9467 18.4035 11.8427 20.4121 11.8427C22.903 11.8427 24.7707 13.4706 24.7707 16.9691V23.5004Z" fill="#363744"/>
</svg>
