<svg width="25" height="25" viewBox="0 0 25 25" fill="none" xmlns="http://www.w3.org/2000/svg">
<path d="M24.8476 23.979L20.4531 13.7251C20.3966 13.5934 20.3027 13.4811 20.1831 13.4022C20.0634 13.3233 19.9232 13.2812 19.7799 13.2813H5.13142C4.83846 13.2813 4.57371 13.4558 4.45833 13.7251L0.0638009 23.979C-0.142986 24.4614 0.211018 25 0.736896 25H24.1744C24.6991 25 25.0548 24.4623 24.8477 23.979H24.8476Z" fill="#E0F4FE"/>
<path d="M24.1748 25H12.4561V13.2812H19.7803C20.0732 13.2812 20.338 13.456 20.4536 13.7251L24.8481 23.979C25.0552 24.4623 24.6997 25 24.1747 25H24.1748Z" fill="#BCDCFE"/>
<path d="M3.11489 20.8222L2.50225 22.0073C2.50225 22.0073 2.01377 23.1476 1.84766 23.5352H10.6878L11.6359 23.4215L7.04472 18.8073L3.11489 20.8222Z" fill="#159BE1"/>
<path d="M21.7018 20.5807L21.4684 19.8136L19.2966 14.7461H16.6759L14.9024 14.7781L7.04395 18.8072L11.6352 23.4215L12.7584 23.5352H14.2823L16.0348 23.4861L21.7018 20.5807Z" fill="#5DC983"/>
<path d="M21.7019 20.5804L16.035 23.4863L14.2826 23.5351H12.7586L12.4553 23.5044V16.0331L14.9026 14.7783L16.0873 14.7568L16.6761 14.7461H19.2966L21.4684 19.8135L21.7019 20.5804ZM5.61401 14.746C5.16504 15.7937 3.40894 19.8906 3.40894 19.8906L3.11426 20.8221L14.9024 14.7781L13.4612 14.746H5.61401Z" fill="#0EAB61"/>
<path d="M14.9024 14.7783L12.4551 16.0332V14.7461H13.461L14.9024 14.7783Z" fill="#0EAB61"/>
<path d="M21.7011 20.5807L16.0342 23.4862L17.4668 23.5352H23.0624C22.7238 22.7447 22.3851 21.9542 22.0463 21.1638L21.7011 20.5807Z" fill="#159BE1"/>
<path d="M8.2726 19.0479L12.7599 23.5352H10.6884L6.90229 19.749L2.50684 21.998L3.41016 19.8906C3.53032 19.8292 13.3423 14.8075 13.4624 14.7461H16.6773L8.2726 19.0479Z" fill="#FED941"/>
<path d="M12.4561 23.2319L12.7593 23.5352H12.4561V23.2319Z" fill="#FEB99E"/>
<path d="M16.6768 14.7461L15.7994 15.1953L12.4561 16.9062V15.2607C13.0576 14.9531 13.4391 14.7578 13.462 14.7461L16.6768 14.7461ZM22.0479 21.1636L17.4684 23.5352H14.2833L21.4692 19.8135L22.0479 21.1636Z" fill="#FCBE29"/>
<path d="M12.4561 0C8.87573 0 5.86426 2.62451 5.86426 7.17773C5.86426 11.7931 11.6569 18.5076 11.9035 18.7912C12.195 19.1265 12.7168 19.1271 13.0088 18.7912C13.2554 18.5076 19.0478 11.7932 19.0478 7.17773C19.0478 2.6665 15.9812 0 12.4561 0ZM12.4561 8.78906C11.2445 8.78906 10.2588 7.80332 10.2588 6.59179C10.2588 5.38027 11.2445 4.39453 12.4561 4.39453C13.6676 4.39453 14.6533 5.38027 14.6533 6.59179C14.6533 7.80332 13.6676 8.78906 12.4561 8.78906Z" fill="#EE3616"/>
<path d="M12.4561 0V4.39453C13.6676 4.39453 14.6533 5.38042 14.6533 6.59179C14.6533 7.80317 13.6676 8.78906 12.4561 8.78906V19.043C12.6598 19.043 12.8629 18.959 13.0088 18.791C15.169 16.3076 19.0478 10.8986 19.0478 7.17773C19.0478 2.6665 15.981 0 12.4561 0Z" fill="#CB0010"/>
</svg>
