<svg width="15" height="16" viewBox="0 0 15 16" fill="none" xmlns="http://www.w3.org/2000/svg">
<path d="M7.25476 8.29957C9.3968 8.29957 11.1388 6.02633 11.1388 3.88464C11.1388 1.74277 9.3968 1.52588e-05 7.25476 1.52588e-05C5.11307 1.52588e-05 3.37067 1.74259 3.37067 3.88446C3.37084 6.02633 5.11324 8.29957 7.25476 8.29957ZM10.1708 8.33922C9.39207 8.934 8.43913 9.25582 7.4592 9.25495H7.05031C6.07038 9.25584 5.11742 8.93403 4.33867 8.33922C1.87858 8.7369 0 10.8693 0 13.4414C0 14.8544 3.248 16 7.25476 16C11.2615 16 14.5095 14.8544 14.5095 13.4414C14.5095 10.8693 12.6308 8.7369 10.1708 8.33922Z" fill="#363744"/>
</svg>
