<svg width="197" height="82" viewBox="0 0 197 82" fill="none" xmlns="http://www.w3.org/2000/svg">
<path d="M6.34461 31.7607C6.2942 31.7959 6.24781 31.8366 6.20628 31.882C5.81798 32.4475 5.43211 33.0105 5.04866 33.5809C4.63609 34.1876 4.21866 34.7943 3.81822 35.4107C3.60466 35.7359 3.42264 36.0805 3.22606 36.4179C2.98337 36.8474 2.71885 37.277 2.46645 37.709C2.34834 37.9145 2.23428 38.1232 2.12426 38.3351C1.88157 38.8205 1.62432 39.3059 1.37435 39.7913C1.34592 39.8334 1.31513 39.8739 1.28213 39.9126C1.2433 39.8107 1.21175 39.7354 1.18748 39.6554C0.829742 38.5152 0.533238 37.3567 0.299237 36.1849C0.120715 35.2987 0.0506296 34.3941 0.0905245 33.4911C0.155155 32.6015 0.33965 31.7248 0.639003 30.8846C1.16121 29.4267 1.97639 28.0912 3.03434 26.9603C4.27938 25.6051 5.69375 24.4159 7.24256 23.4219C8.14051 22.8297 9.02632 22.2206 9.8636 21.5459C10.4459 21.0905 10.9846 20.5819 11.4726 20.0267C11.641 19.8393 11.7727 19.622 11.8609 19.386C11.8315 19.4034 11.8038 19.4238 11.7784 19.4467C11.0455 20.2339 10.1837 20.8905 9.23018 21.3882C8.85159 21.5969 8.45358 21.774 8.06285 21.9633C7.83958 22.075 7.6163 22.1866 7.38818 22.2885C7.27781 22.3311 7.1652 22.3676 7.05084 22.3978C6.95707 22.2429 6.89672 22.0701 6.87367 21.8905C6.77714 21.4566 6.64065 21.0325 6.46596 20.6237C6.32346 20.2368 6.14554 19.8639 5.93447 19.5098C5.7476 19.2064 5.55102 18.9079 5.35444 18.6094C5.01468 18.0925 4.67734 17.5755 4.32787 17.0659C4.00344 16.5753 3.7852 16.0222 3.68717 15.4423C3.56881 14.7882 3.61636 14.1148 3.8255 13.4838C3.98082 12.9984 4.15556 12.513 4.33272 12.0422C4.4082 11.861 4.42434 11.6605 4.37883 11.4695C4.24536 10.9671 4.11673 10.4623 3.98325 9.95996C3.94442 9.81435 3.89588 9.67359 3.84735 9.51099C3.45157 9.63961 3.07015 9.80877 2.70914 10.0158C2.33228 10.2315 1.98133 10.4896 1.66315 10.7851C1.47385 10.9623 1.30154 11.1588 1.12681 11.3506C1.02472 11.4789 0.884498 11.5716 0.726368 11.6151C0.695808 11.6267 0.663005 11.6313 0.630427 11.6284C0.597849 11.6256 0.566348 11.6153 0.538304 11.5985C0.51026 11.5817 0.486403 11.5587 0.468533 11.5313C0.450663 11.5039 0.439244 11.4728 0.435142 11.4404C0.387703 11.226 0.425105 11.0016 0.5395 10.8142C0.650648 10.579 0.802661 10.3653 0.988472 10.1832C1.39134 9.80949 1.82089 9.45517 2.25531 9.12511C2.46241 8.98649 2.67985 8.86398 2.90572 8.75865C3.09501 8.6543 3.28916 8.55479 3.4906 8.44801C3.48306 8.27727 3.44951 8.10868 3.39109 7.94807C3.36197 7.81945 3.32314 7.70538 3.29159 7.56948C3.22849 7.32679 3.24063 7.28796 3.42507 7.15448C3.68833 6.94141 4.01367 6.81961 4.35214 6.80744C4.47192 6.80336 4.59085 6.82891 4.69838 6.88183C4.80592 6.93475 4.89873 7.0134 4.96857 7.1108C5.08977 7.29001 5.19999 7.47642 5.29863 7.66898C5.36658 7.7879 5.40784 7.81217 5.54132 7.77576C6.17716 7.59132 6.813 7.41416 7.44642 7.22243C8.16111 7.02495 8.80764 6.63452 9.31513 6.09393C9.72808 5.62516 10.2906 5.31386 10.9072 5.21297C10.9453 5.20386 10.9826 5.19169 11.0188 5.17657C11.0188 5.10376 11.0188 5.03095 11.0188 4.95572C10.9897 4.40239 10.98 3.84663 10.9241 3.29573C10.9131 3.13953 10.9388 2.98292 10.999 2.83839C11.0593 2.69386 11.1525 2.56542 11.2712 2.46331C11.5223 2.20781 11.7422 1.92351 11.9265 1.61632C12.0187 1.48709 12.0632 1.3299 12.0526 1.1715C12.042 1.0131 11.9768 0.863271 11.8682 0.747498C11.8003 0.67998 11.717 0.630004 11.6255 0.601885C11.5069 0.549357 11.3821 0.511855 11.2542 0.490248C11.1679 0.474738 11.0792 0.479947 10.9953 0.505446C10.9115 0.530945 10.8349 0.576002 10.7718 0.636909C10.7088 0.697816 10.6611 0.772831 10.6327 0.85577C10.6044 0.93871 10.5961 1.0272 10.6087 1.11396C10.6203 1.18862 10.626 1.26409 10.6256 1.33966C10.6241 1.40666 10.5988 1.47094 10.5544 1.52113C10.51 1.57132 10.4493 1.60418 10.383 1.6139C10.318 1.62799 10.2502 1.61926 10.191 1.5892C10.1318 1.55914 10.0847 1.50958 10.0578 1.44887C10.0111 1.35216 9.98857 1.24555 9.99222 1.13823C10.0099 0.915641 10.0895 0.702438 10.222 0.522734C10.3545 0.343031 10.5347 0.203997 10.7421 0.12136C11.0572 -0.0195274 11.4133 -0.0384482 11.7415 0.0682649C12.0697 0.174978 12.3467 0.399728 12.5186 0.698961C12.5855 0.824912 12.6246 0.963701 12.6334 1.10602C12.6422 1.24833 12.6204 1.39088 12.5696 1.5241C12.4405 1.98671 12.1889 2.40592 11.8415 2.73754C11.7227 2.82899 11.6315 2.95151 11.5779 3.09156C11.5244 3.23162 11.5106 3.38375 11.5382 3.53114C11.5823 4.00465 11.601 4.4802 11.594 4.95572C11.5963 5.00942 11.602 5.06291 11.611 5.1159C11.8682 5.1523 12.1133 5.18385 12.356 5.2251C12.4416 5.23598 12.5242 5.26405 12.5987 5.30762C12.9356 5.4851 13.2599 5.68538 13.5695 5.90706C13.7925 6.112 14.0284 6.30249 14.2757 6.47738C14.6057 6.68124 14.8921 6.96276 15.2707 7.0841C15.3119 7.10006 15.3517 7.11955 15.3896 7.14235C15.9181 7.41819 16.4704 7.64563 17.0399 7.82187L17.5787 8.0136C17.6733 7.78547 17.7728 7.58404 17.8432 7.37047C17.8645 7.2714 17.9193 7.18272 17.9985 7.11947C18.0777 7.05622 18.1763 7.02229 18.2776 7.02343C18.5057 7.02343 18.7339 7.00401 18.962 7.00887C19.0918 7.01299 19.2203 7.03672 19.343 7.07925C19.3855 7.09043 19.4252 7.11003 19.4599 7.13687C19.4946 7.16371 19.5236 7.19726 19.5451 7.23551C19.5666 7.27377 19.5802 7.31595 19.5851 7.35956C19.59 7.40318 19.5861 7.44732 19.5736 7.48939C19.5372 7.71266 19.4862 7.93594 19.4425 8.15921C19.4231 8.26357 19.4061 8.37035 19.3867 8.47471L20.1293 8.74895C20.5821 8.92644 21.0091 9.16397 21.3986 9.45517C21.7825 9.756 22.111 10.1215 22.3694 10.5351C22.4383 10.6418 22.4824 10.7626 22.4984 10.8887C22.5144 11.0147 22.5018 11.1427 22.4616 11.2632C22.4588 11.3107 22.4411 11.3562 22.4109 11.393C22.3808 11.4299 22.3397 11.4562 22.2937 11.4684C22.2476 11.4805 22.1989 11.4777 22.1546 11.4605C22.1102 11.4433 22.0724 11.4124 22.0466 11.3724C21.8601 11.1463 21.6502 10.9404 21.4204 10.7584C21.066 10.475 20.682 10.2309 20.2749 10.0303C19.9376 9.88473 19.5978 9.74154 19.2605 9.60078C19.2139 9.58659 19.1659 9.57764 19.1173 9.57409C18.9838 9.94116 18.9021 10.3251 18.8746 10.7147C18.831 11.2001 18.8746 11.6685 18.8746 12.1442C18.892 12.7919 18.8734 13.44 18.8188 14.0857C18.8022 14.2366 18.7771 14.3865 18.7436 14.5346C18.6174 15.0855 18.5009 15.6389 18.3456 16.1801C18.2339 16.5635 18.0495 16.9251 17.9087 17.3013C17.6737 17.8843 17.4846 18.4847 17.3433 19.0972C17.2989 19.2987 17.281 19.5051 17.2899 19.7112C17.3239 20.2742 17.3845 20.8373 17.4258 21.41C17.4452 21.6794 17.4258 21.9536 17.4501 22.223C17.5034 23.1452 17.5568 24.0675 17.6224 24.9897C17.6636 25.5503 17.7194 26.1133 17.785 26.6715C17.8505 27.2297 17.9184 27.749 18.0058 28.2854C18.1077 28.9164 18.2485 29.5425 18.3407 30.1735C18.416 30.6783 18.5397 31.171 18.6417 31.6709C18.7217 32.064 18.8261 32.4499 18.9232 32.8407C19.0202 33.2314 19.1198 33.6197 19.2193 34.008C19.3188 34.3963 19.4085 34.7676 19.5202 35.1413C19.6779 35.6704 19.8527 36.1946 20.0177 36.7212C20.0517 36.8232 20.059 36.9348 20.0905 37.0367C20.1876 37.3353 20.2895 37.6313 20.3939 37.9274C20.5613 38.4128 20.7239 38.8982 20.9011 39.369C21.0613 39.7961 21.236 40.2184 21.4083 40.6407C21.651 41.2425 21.8937 41.8541 22.1485 42.4463C22.2844 42.7666 22.4276 43.0821 22.5708 43.4C22.7819 43.8636 22.9882 44.3295 23.2066 44.7906C23.4008 45.2008 23.6095 45.6061 23.8085 46.0041C23.9929 46.373 24.1677 46.7467 24.357 47.1107C24.4977 47.3801 24.6555 47.6374 24.8059 47.8995L25.3083 48.7756C25.3835 48.9067 25.4539 49.0426 25.5316 49.1736C25.7457 49.487 25.9325 49.8183 26.0898 50.1638C26.1652 50.3083 26.2538 50.4456 26.3543 50.5739C26.4392 50.7123 26.5169 50.853 26.597 50.9938C26.6083 51.0248 26.6221 51.0548 26.6382 51.0836C26.8809 51.433 27.1091 51.7849 27.3493 52.1344C27.5283 52.3652 27.6905 52.6085 27.8347 52.8625C27.9915 53.1343 28.171 53.3925 28.371 53.6342C28.6283 53.9983 28.8977 54.3623 29.1719 54.7045C29.4462 55.0467 29.7083 55.3573 29.9752 55.6752C30.2033 55.9519 30.4299 56.2294 30.6547 56.5077C30.8707 56.7928 31.105 57.0636 31.3561 57.3182C31.5503 57.5051 31.7153 57.7211 31.8949 57.925C31.9332 57.9774 31.979 58.024 32.0308 58.0633C32.2978 58.2498 32.5296 58.4824 32.7152 58.7501C32.7687 58.8189 32.8288 58.8823 32.8948 58.9394C33.2224 59.1821 33.4602 59.5097 33.7587 59.7767C34.0334 60.0678 34.3234 60.3441 34.6276 60.6042C34.7936 60.7415 34.9501 60.8899 35.0959 61.0484C35.1103 61.0648 35.1266 61.0795 35.1445 61.0921C35.5619 61.3032 35.8216 61.6988 36.1856 61.9706C36.2196 61.9949 36.2487 62.0313 36.2827 62.0579L37.3966 62.8443C37.4443 62.871 37.4891 62.9027 37.5301 62.9389C37.8417 63.2057 38.1727 63.4491 38.5203 63.667C38.9159 63.9752 39.3624 64.2033 39.7677 64.4945C40.1042 64.7321 40.4525 64.9524 40.8113 65.1547C41.2627 65.4119 41.7311 65.64 42.1873 65.8827C42.4518 66.0283 42.7091 66.1909 42.9688 66.3487C43.0149 66.3754 43.0561 66.4239 43.1047 66.4361C43.4522 66.5631 43.7857 66.7257 44.0997 66.9214C44.2453 66.9918 44.3982 67.0452 44.5462 67.1132C44.9297 67.2903 45.3083 67.4772 45.6942 67.6495C45.9941 67.8003 46.311 67.9144 46.6382 67.9893C46.7245 67.9971 46.8077 68.0254 46.8809 68.0718C47.0669 68.1849 47.2743 68.2585 47.4901 68.2878C47.7563 68.3391 48.0101 68.4412 48.2375 68.5887C48.2917 68.6252 48.3528 68.65 48.4171 68.6615C48.6817 68.7246 48.9462 68.7756 49.2083 68.8387C49.4561 68.8878 49.6996 68.9567 49.9364 69.045C50.1413 69.1133 50.3515 69.1645 50.5649 69.1979C50.7858 69.2537 51.009 69.3022 51.2299 69.3532L51.9191 69.5182L51.1911 69.8725C50.3843 70.2464 49.5589 70.5785 48.7181 70.8676C47.7059 71.2243 46.6672 71.501 45.6116 71.6951C45.1869 71.7752 44.7525 71.8043 44.323 71.8553C44.2162 71.8699 44.1094 71.8941 44.0026 71.9038C43.7454 71.9257 43.4881 71.9451 43.2309 71.9597C42.9736 71.9742 42.6921 72.0009 42.4227 71.9912C42.0538 71.9912 41.6947 71.9451 41.3209 71.9184C41.2775 71.9112 41.2338 71.9063 41.1899 71.9038C40.3643 71.8823 39.5431 71.7774 38.7387 71.5908C38.2218 71.4864 37.7097 71.3481 37.1952 71.2219C36.7785 71.1099 36.3692 70.9721 35.9696 70.8093C35.24 70.5363 34.5262 70.2227 33.8315 69.8701C33.4481 69.6687 33.0428 69.5085 32.6569 69.3119C32.271 69.1153 31.9604 68.9236 31.6134 68.7246C31.3416 68.5693 31.0892 68.3727 30.8173 68.2271C30.5455 68.0815 30.2931 67.8461 29.9995 67.7029C29.929 67.6532 29.8632 67.5971 29.8029 67.5354C29.701 67.4578 29.5918 67.3874 29.4898 67.3097C29.2458 67.1506 29.0182 66.9677 28.8103 66.7637C28.672 66.6059 28.4584 66.521 28.3079 66.3608C28.1809 66.1894 28.0144 66.0512 27.8226 65.958C27.7983 65.9167 27.7716 65.8779 27.7449 65.8366L27.7061 65.8754L27.825 65.958C27.9706 66.157 28.1065 66.3633 28.2667 66.5501C28.4972 66.8244 28.7521 67.084 28.9948 67.3437C29.286 67.6495 29.5772 67.9553 29.8806 68.2489C30.1839 68.5426 30.429 68.7707 30.7178 69.0134C31.1231 69.3556 31.5406 69.6832 31.9556 70.0157C32.2516 70.2584 32.5696 70.4623 32.8632 70.7001C33.2879 71.0423 33.7587 71.3068 34.2077 71.6102C34.7675 71.9826 35.3485 72.3222 35.9478 72.627C36.4574 72.8916 36.9719 73.1537 37.4961 73.3891C38.1757 73.6973 38.8649 73.9885 39.5566 74.2652C40.4418 74.6352 41.3478 74.9537 42.2698 75.219C43.0334 75.433 43.8123 75.588 44.5996 75.6825C44.9443 75.7189 45.284 75.7966 45.6286 75.833C46.2523 75.8985 46.8785 75.947 47.5265 76.0028C47.4931 76.0496 47.4548 76.0927 47.4124 76.1315C47.0627 76.3884 46.6916 76.6149 46.3033 76.8086C46.08 76.9202 45.8689 77.0513 45.6505 77.1775C45.4321 77.3037 45.2112 77.408 44.9879 77.5221C44.7088 77.6677 44.42 77.7866 44.1531 77.9589C43.9712 78.0561 43.7812 78.1373 43.5852 78.2016C43.0416 78.4176 42.5052 78.6554 41.9495 78.8399C41.4787 78.9976 40.9787 79.0826 40.4933 79.2136C40.4205 79.233 40.3429 79.2427 40.2701 79.2646C39.7784 79.3997 39.2726 79.4763 38.763 79.4927C38.6441 79.4927 38.5203 79.5315 38.4086 79.5485C38.2485 79.5704 38.0859 79.5849 37.9233 79.6043L37.6054 79.6505C37.5524 79.6605 37.4989 79.667 37.4452 79.6699C37.1515 79.6699 36.8579 79.6699 36.5666 79.6699C36.2754 79.6699 35.9162 79.6407 35.5959 79.6262C35.5636 79.6239 35.5311 79.6239 35.4988 79.6262C35.0429 79.634 34.5874 79.5942 34.1397 79.5073C34.1079 79.4997 34.0754 79.4956 34.0427 79.4951C33.6085 79.4937 33.1761 79.4415 32.754 79.3398C32.2592 79.2709 31.7754 79.1379 31.3149 78.9442C31.1207 78.8496 30.9096 78.801 30.7106 78.721C30.247 78.5389 29.7835 78.3521 29.3248 78.1603C28.9948 78.0196 28.6696 77.8716 28.3541 77.7162C27.7959 77.4493 27.2717 77.1216 26.7353 76.8158C26.3691 76.6063 26.015 76.3762 25.6748 76.1266C25.2889 75.8499 24.8739 75.6121 24.4953 75.3257C23.8085 74.8015 23.1193 74.2798 22.4786 73.6949C22.0223 73.2799 21.5976 72.8358 21.168 72.3916C20.6511 71.8529 20.1633 71.285 19.6876 70.7098C19.3398 70.2924 19.0057 69.8644 18.6853 69.426C18.3359 68.9406 18.0058 68.4552 17.666 67.9698C17.6365 67.9361 17.6031 67.906 17.5665 67.8801C17.5827 67.9619 17.6029 68.0429 17.6272 68.1227C17.8335 68.6445 18.0325 69.1712 18.2558 69.6881C18.4378 70.1176 18.6514 70.5326 18.8479 70.9549C19.2047 71.7218 19.6148 72.4596 20.0395 73.1901C20.3332 73.6973 20.6463 74.19 20.9569 74.685C21.1441 75.002 21.3499 75.3075 21.5733 75.6C21.8451 75.9373 22.0733 76.3062 22.3402 76.6484C22.6897 77.0901 23.0416 77.5342 23.4202 77.9516C24.0002 78.5972 24.5997 79.2282 25.204 79.8519C25.534 80.1941 25.8908 80.5144 26.2354 80.8445C26.2888 80.8954 26.3373 80.9513 26.4247 81.0435H26.2232C24.8767 80.9747 23.5378 80.7994 22.2189 80.5193C20.7793 80.1719 19.3778 79.6825 18.0349 79.0583C16.968 78.5674 15.9464 77.9835 14.9819 77.3134C14.0679 76.6654 13.2084 75.9438 12.4118 75.1559C10.6012 73.4344 9.13293 71.3856 8.08469 69.1178C7.53906 67.9691 7.07044 66.7854 6.68195 65.5745C6.23128 64.178 5.88331 62.7504 5.64081 61.3032C5.57772 60.9197 5.56073 60.5266 5.53161 60.1359C5.49278 59.585 5.44667 59.034 5.42725 58.4807C5.40784 57.8522 5.41512 57.2236 5.41269 56.595C5.41269 56.3523 5.41269 56.1096 5.41269 55.833C5.31596 55.9529 5.2576 56.0992 5.24523 56.2528C5.15059 56.7382 5.06079 57.2236 4.98313 57.7284C4.86179 58.5098 4.75257 59.2937 4.64094 60.0776C4.57299 60.5484 4.50503 61.0217 4.44679 61.4949C4.41524 61.7376 4.39582 61.9803 4.37641 62.24C4.29389 63.2568 4.21866 64.2737 4.21138 65.2954C4.21138 66.0744 4.22352 66.8559 4.2405 67.6349C4.25264 68.2222 4.27933 68.8071 4.30118 69.392C4.30118 69.4891 4.30118 69.5862 4.30118 69.6832C4.12159 69.7293 4.04392 69.6226 3.98082 69.5061C3.87647 69.3168 3.78425 69.1178 3.68474 68.926C3.44206 68.4625 3.19937 68.0014 2.97124 67.5379C2.83533 67.2661 2.71157 66.9918 2.58051 66.7176L2.16551 65.839C2.13639 65.7808 2.1097 65.7201 2.08543 65.6594C1.75537 64.8343 1.42774 64.0092 1.17777 63.1549C0.538131 60.9623 0.152958 58.7034 0.0298523 56.4227C-0.00412412 55.651 -0.0041219 54.8792 0.00558565 54.1075C0.00558565 53.2799 0.0395612 52.4548 0.0880989 51.6296C0.189312 49.6528 0.453115 47.6877 0.876837 45.7541C1.29672 43.9223 1.81109 42.1135 2.41791 40.3349C2.63876 39.6772 2.87659 39.0268 3.14597 38.3934C3.47603 37.6046 3.79396 36.811 4.17255 36.0417C4.43708 35.5102 4.67734 34.9642 4.93459 34.4278C5.0438 34.2021 5.16515 33.9837 5.28407 33.7653C5.61655 33.1586 5.92962 32.5373 6.29365 31.9476C6.317 31.8896 6.33014 31.828 6.33248 31.7655C6.37342 31.7528 6.40866 31.7263 6.43213 31.6904C6.45561 31.6545 6.46585 31.6116 6.4611 31.569L6.51935 31.5131L6.48537 31.4865L6.46838 31.5762C6.43176 31.5912 6.40042 31.6167 6.37837 31.6496C6.35633 31.6824 6.34457 31.7211 6.34461 31.7607ZM5.75973 8.8897C5.84953 9.15424 5.92719 9.38964 6.00242 9.61777C6.13833 10.0085 6.27666 10.3968 6.41014 10.7875C6.42793 10.8609 6.46204 10.9294 6.50994 10.9878C6.55784 11.0462 6.6183 11.0931 6.68681 11.1249C6.92949 11.2219 7.13578 11.3384 7.36633 11.4331C7.79589 11.6102 8.22545 11.7898 8.66472 11.9427C8.95109 12.0422 9.2496 12.1029 9.54568 12.1854C9.705 12.232 9.86712 12.2685 10.0311 12.2946C10.3635 12.3456 10.6984 12.3868 11.0334 12.4184C11.3651 12.4676 11.7003 12.4903 12.0357 12.4864C12.4676 12.4621 12.8948 12.3699 13.3243 12.3213C14.1997 12.2165 15.0512 11.9655 15.8435 11.5787C16.2795 11.3795 16.6341 11.0369 16.8482 10.6079C17.0489 10.1582 17.2026 9.68895 17.3069 9.20763C17.3171 9.14094 17.3228 9.07365 17.3239 9.0062C17.1879 8.96736 17.0642 8.92611 16.9404 8.89456C16.7608 8.84845 16.5764 8.82175 16.4016 8.76351C15.6153 8.49169 14.8047 8.27813 14.0403 7.94807C13.4942 7.70538 12.9312 7.50881 12.3754 7.29767C12.2138 7.23394 12.0452 7.18994 11.8731 7.16661C11.615 7.14156 11.3556 7.13345 11.0965 7.14235C10.9667 7.14358 10.8389 7.17429 10.7227 7.23214C10.3589 7.44841 9.97123 7.62187 9.56752 7.74907C9.18164 7.851 8.81519 8.01602 8.43416 8.13737C8.0944 8.24415 7.74493 8.32667 7.40031 8.42374L5.75973 8.8897ZM6.69651 31.251L6.71107 31.2268H6.68923L6.69651 31.251Z" fill="#98FF98"/>
<path d="M41.3452 42.7598L41.495 43.4713C41.495 43.7709 41.339 44.1266 41.0269 44.5385C40.2031 45.612 38.88 46.8477 37.0576 48.2457C35.2477 49.6312 33.9121 50.3239 33.0509 50.3239C32.1896 50.3239 31.5156 50.0743 31.0288 49.575C30.542 49.0632 30.2986 48.4828 30.2986 47.8338C30.2986 47.0599 31.1099 45.3498 32.7326 42.7036C35.1666 38.7718 38.2746 34.1784 42.0567 28.9235C41.2578 29.7473 39.1359 31.9691 35.6908 35.5889C28.0643 43.5774 23.6082 48.1021 22.3226 49.1631C22.1104 49.3378 21.7983 49.4252 21.3864 49.4252C20.987 49.4252 20.5626 49.2629 20.1132 48.9384C19.6639 48.6014 19.4392 48.2269 19.4392 47.815V47.7214C19.4891 47.1972 20.6937 44.6321 23.0528 40.0262C25.4119 35.4204 27.3903 31.7569 28.988 29.0358C26.6289 31.6321 24.2448 34.5279 21.8358 37.7233C17.2549 43.7896 13.9034 48.9571 11.7815 53.226C11.5943 53.6254 11.3633 53.8251 11.0887 53.8251C10.8141 53.8251 10.4147 53.7565 9.89046 53.6192C8.79204 53.3196 8.24283 52.7954 8.24283 52.0464C8.24283 51.5971 9.16026 49.9931 10.9951 47.2346C12.83 44.4636 14.9582 41.443 17.3797 38.1727C19.8012 34.8899 22.3101 31.7319 24.9063 28.6988C28.4887 24.5048 30.7916 22.4078 31.8152 22.4078C31.9774 22.4078 32.1334 22.4515 32.2832 22.5389C32.433 22.6138 32.5266 22.6512 32.5641 22.6512C32.6015 22.6512 32.639 22.6325 32.6764 22.5951C32.8387 22.3954 33.157 22.2955 33.6313 22.2955C34.1181 22.2955 34.5862 22.3891 35.0355 22.5763C35.4974 22.7636 35.7283 22.9758 35.7283 23.2129C35.7283 23.3627 35.1042 24.5548 33.856 26.789C29.6745 34.2034 26.866 39.296 25.4306 42.0671C26.8036 40.4069 28.7633 38.2039 31.3096 35.4578C33.8685 32.7118 36.5521 29.972 39.3605 27.2384C43.0178 23.6935 45.2021 21.921 45.9136 21.921C46.2007 21.921 46.5627 21.9835 46.9996 22.1083C47.7734 22.3329 48.5161 22.4453 49.2276 22.4453C49.4273 22.4827 49.5958 22.5701 49.7331 22.7074C49.8829 22.8322 49.9578 22.9633 49.9578 23.1006C49.9578 23.2379 49.9204 23.3502 49.8455 23.4376C45.7888 28.8299 42.3687 33.5855 39.5852 37.7046C36.8017 41.8237 35.0855 44.6071 34.4364 46.0551C35.747 45.7805 37.7004 44.214 40.2967 41.3556C40.409 41.2058 40.4902 41.1059 40.5401 41.056C40.59 41.0061 40.6337 40.9562 40.6712 40.9062C40.8834 40.6566 41.0456 40.8126 41.158 41.3743C41.2079 41.6988 41.2391 41.9297 41.2516 42.0671C41.2765 42.1919 41.2953 42.3292 41.3077 42.479C41.3327 42.6163 41.3452 42.7099 41.3452 42.7598ZM56.6045 35.4391C57.5531 35.4391 58.0274 35.7636 58.0274 36.4127C58.0274 36.7622 57.9463 37.0181 57.784 37.1803C57.6218 37.3426 57.2723 37.8856 56.7355 38.8092C56.2113 39.7204 55.6246 40.8937 54.9756 42.3292C54.339 43.7521 53.9271 44.9691 53.7399 45.9802C53.7024 46.105 53.6837 46.2797 53.6837 46.5044C53.6837 47.1909 53.8709 47.5342 54.2454 47.5342C54.6198 47.5342 55.063 47.3594 55.5747 47.0099C56.0865 46.648 56.5421 46.2673 56.9415 45.8678C57.3409 45.4559 57.7279 45.0378 58.1023 44.6134C58.4893 44.189 58.7202 43.9456 58.7951 43.8832C58.87 43.8208 58.9823 43.7896 59.1321 43.7896C59.3693 43.7896 59.5128 43.9706 59.5627 44.3325C59.6127 44.6945 59.6376 45.069 59.6376 45.4559C59.6376 45.8429 59.6002 46.1112 59.5253 46.261C59.1633 46.9725 58.3645 47.8275 57.1287 48.8261C55.9055 49.8246 54.7883 50.3239 53.7773 50.3239C52.7787 50.3239 52.0423 50.0181 51.568 49.4065C51.0937 48.7949 50.8565 48.1208 50.8565 47.3844C50.8565 46.6355 50.9813 45.9802 51.231 45.4185C50.195 46.7665 49.0029 47.9086 47.6549 48.8448C46.3193 49.781 45.2271 50.249 44.3783 50.249C43.5296 50.249 42.8368 49.9931 42.3001 49.4814C41.6136 48.8448 41.2703 47.9648 41.2703 46.8414C41.2703 45.7056 41.5199 44.5697 42.0192 43.4338C42.531 42.2855 43.1988 41.2432 44.0226 40.3071C44.8464 39.3584 45.7514 38.4972 46.7374 37.7233C48.8095 36.1006 50.7192 35.2893 52.4667 35.2893C53.1407 35.2893 53.6899 35.4016 54.1143 35.6263C54.5387 35.851 54.8071 36.1318 54.9194 36.4689C55.219 36.0195 55.4686 35.7387 55.6683 35.6263C55.8805 35.5015 56.1926 35.4391 56.6045 35.4391ZM54.1143 37.5173C51.9799 37.5173 49.7706 38.7031 47.4864 41.0747C46.675 41.9235 45.9261 42.9408 45.2396 44.1266C44.5656 45.3124 44.2285 46.1237 44.2285 46.5606C44.2285 46.9975 44.3534 47.2159 44.603 47.2159C44.9525 47.2159 45.9261 46.5294 47.5238 45.1564C49.1215 43.7709 50.1825 42.7536 50.7067 42.1045C51.2809 41.3805 52.4168 39.8515 54.1143 37.5173ZM71.5829 32.7991C71.7452 32.6993 71.9636 32.6494 72.2382 32.6494C72.5128 32.6494 72.8623 32.8116 73.2867 33.1362C73.7111 33.4482 73.9233 33.7228 73.9233 33.96C73.9233 34.1846 73.8422 34.3656 73.6799 34.5029C73.5176 34.6402 72.9435 35.1582 71.9574 36.057C70.9838 36.9432 69.8667 37.9667 68.606 39.1275C67.3453 40.2884 66.3405 41.2058 65.5916 41.8798C65.4917 43.0781 65.4418 44.3201 65.4418 45.6057C65.4418 46.8789 65.6103 47.5155 65.9473 47.5155C66.6713 47.4156 67.545 46.8352 68.5685 45.7742C68.943 45.3873 69.3112 44.9941 69.6732 44.5947C70.0476 44.1952 70.2723 43.9643 70.3472 43.9019C70.4346 43.827 70.5407 43.7896 70.6655 43.7896C70.8902 43.7896 71.0275 43.9206 71.0774 44.1828C71.1398 44.4449 71.171 44.8256 71.171 45.3249C71.171 45.8117 71.1398 46.1237 71.0774 46.261C70.7404 46.96 69.9478 47.815 68.6996 48.8261C67.4639 49.8246 66.2905 50.3239 65.1796 50.3239C63.3698 50.3239 62.4648 49.0757 62.4648 46.5793C62.4648 46.0675 62.5023 45.4497 62.5771 44.7257C60.4926 46.9226 58.8138 48.8261 57.5406 50.4363C57.4408 50.5736 57.2348 50.6422 56.9228 50.6422C56.6107 50.6422 56.2612 50.4862 55.8743 50.1741C55.4873 49.8621 55.2939 49.5812 55.2939 49.3316C55.2939 49.0695 55.3188 48.8635 55.3688 48.7137C55.5061 48.2145 56.3049 47.1722 57.7653 45.587C59.2382 44.0018 60.917 42.3978 62.8018 40.7752C62.7519 39.7017 62.7269 38.8779 62.7269 38.3037C62.7269 37.7171 62.6895 37.4237 62.6146 37.4237C62.5522 37.4237 62.3213 37.6047 61.9218 37.9667C61.5349 38.3287 61.2291 38.5097 61.0044 38.5097C60.7797 38.5097 60.5738 38.31 60.3865 37.9105C60.2118 37.5111 60.1244 37.2303 60.1244 37.068C60.1244 36.5063 60.5987 35.7886 61.5474 34.9148C62.5085 34.0411 63.3885 33.6042 64.1873 33.6042C64.412 33.6042 64.7053 33.7228 65.0673 33.96C65.4418 34.1846 65.6415 34.4343 65.6664 34.7089C65.7538 36.0195 65.7975 37.1054 65.7975 37.9667C67.7572 35.8323 69.6857 34.1098 71.5829 32.7991ZM84.3521 29.1107C84.3521 29.8222 84.0213 30.5399 83.3597 31.2638C82.6982 31.9753 82.0054 32.3311 81.2815 32.3311C80.57 32.3311 80.2143 31.9566 80.2143 31.2077C80.2143 30.4588 80.5263 29.7473 81.1504 29.0733C81.787 28.3867 82.486 28.0435 83.2474 28.0435C83.5844 28.0435 83.8528 28.1371 84.0525 28.3243C84.2522 28.5116 84.3521 28.7737 84.3521 29.1107ZM81.3189 45.4559C81.3189 45.8304 81.2815 46.0988 81.2066 46.261C80.595 47.5092 79.6214 48.5203 78.2858 49.2942C76.9502 50.0556 75.7894 50.4363 74.8033 50.4363C73.8172 50.4363 72.9684 50.1055 72.257 49.4439C71.5455 48.7824 71.1897 48.1084 71.1897 47.4218C71.1897 46.7353 71.533 45.7368 72.2195 44.4262C72.906 43.1155 73.5925 41.9048 74.2791 40.7939C74.9656 39.683 75.3088 39.0838 75.3088 38.9965C75.3088 38.8966 75.1778 38.7094 74.9156 38.4348C74.666 38.1602 74.5412 37.9605 74.5412 37.8356C74.5412 37.6983 74.7971 37.3551 75.3088 36.8059C75.8331 36.2442 76.4634 35.695 77.1998 35.1582C77.9488 34.609 78.5167 34.3344 78.9036 34.3344C79.3031 34.3344 79.6588 34.5092 79.9709 34.8587C80.2829 35.2082 80.4389 35.5265 80.4389 35.8136C80.4389 36.1006 78.9536 38.803 75.9829 43.9206C75.9454 43.9955 75.8393 44.164 75.6646 44.4262C75.5023 44.6758 75.3712 44.888 75.2714 45.0627C75.184 45.225 75.0779 45.4247 74.9531 45.6619C74.7034 46.1612 74.5786 46.5793 74.5786 46.9163C74.5786 47.3407 74.8657 47.5529 75.4399 47.5529C76.0141 47.5529 76.607 47.3594 77.2186 46.9725C77.8427 46.5731 78.3794 46.1362 78.8288 45.6619C80.0021 44.4012 80.6699 43.7709 80.8321 43.7709C81.1567 43.7709 81.3189 44.3325 81.3189 45.4559ZM79.9521 49.781L79.0347 49.7435H78.6977C78.5729 49.7061 78.4418 49.6312 78.3045 49.5188C78.1547 49.4065 78.0424 49.3254 77.9675 49.2754C77.8926 49.2255 77.8552 49.1381 77.8552 49.0133C77.8552 48.876 77.9051 48.6451 78.0049 48.3206C80.4389 42.9658 82.7918 38.6844 85.0635 35.4765C85.3132 35.127 85.7126 34.8649 86.2618 34.6902C86.8235 34.5029 87.3665 34.4093 87.8907 34.4093C88.2028 34.4093 88.3588 34.6527 88.3588 35.1395C88.3588 35.2768 88.3089 35.4641 88.209 35.7012C88.1091 35.9259 87.8595 36.3004 87.4601 36.8246C87.0607 37.3488 86.5863 37.948 86.0371 38.622C85.4879 39.296 85.1759 39.683 85.101 39.7828C86.811 38.0104 88.3525 36.6935 89.7256 35.8323C91.1111 34.9585 92.1096 34.5217 92.7213 34.5217C93.3454 34.5217 93.8197 34.7026 94.1442 35.0646C94.4812 35.4141 94.6497 35.7948 94.6497 36.2067C94.6497 36.6062 94.6185 36.9432 94.5561 37.2178C94.5062 37.4799 94.4063 37.7607 94.2566 38.0603C94.1068 38.3474 93.9757 38.597 93.8634 38.8092C93.7635 39.009 93.5888 39.2773 93.3391 39.6143C93.0895 39.9389 92.9147 40.1635 92.8149 40.2884C92.7275 40.4132 92.534 40.6503 92.2345 40.9998C91.9474 41.3493 91.7913 41.5428 91.7664 41.5803C92.1159 41.2308 92.6027 40.7128 93.2268 40.0262C93.8509 39.3397 94.3751 38.7656 94.7995 38.3037C95.2364 37.8419 95.7794 37.3239 96.4284 36.7497C97.0775 36.163 97.6829 35.6887 98.2446 35.3268C99.5926 34.478 100.959 34.0536 102.345 34.0536C102.819 34.0536 103.219 34.2034 103.543 34.5029C103.868 34.8025 104.03 35.1645 104.03 35.5889C104.03 36.0008 103.524 36.9993 102.513 38.5846C101.502 40.1573 100.491 41.7425 99.4803 43.3402C98.4817 44.9254 97.9824 45.924 97.9824 46.3359C97.9824 46.9101 98.0885 47.2533 98.3007 47.3657C98.5129 47.4655 98.7688 47.503 99.0684 47.478C99.3679 47.4531 99.7861 47.2596 100.323 46.8976C100.872 46.5356 101.359 46.1612 101.783 45.7742C102.47 45.1501 103.106 44.5447 103.693 43.9581C103.818 43.8457 103.955 43.7896 104.105 43.7896C104.342 43.7896 104.486 43.9706 104.536 44.3325C104.585 44.6945 104.61 45.069 104.61 45.4559C104.61 45.8429 104.573 46.1112 104.498 46.261C104.136 46.96 103.337 47.815 102.102 48.8261C100.866 49.8371 99.68 50.3426 98.5441 50.3426C98.4068 50.3426 98.307 50.3364 98.2446 50.3239C96.9589 50.1991 96.0664 49.8496 95.5672 49.2754C95.0804 48.6888 94.837 47.996 94.837 47.1972C94.837 46.3983 95.1053 45.431 95.6421 44.2951C96.1913 43.1592 96.7904 42.1295 97.4395 41.2058C98.0885 40.2821 98.6814 39.4521 99.2182 38.7156C99.7674 37.9667 100.042 37.561 100.042 37.4986C100.042 37.4362 99.992 37.405 99.8922 37.405C99.5052 37.405 98.644 38.0291 97.3084 39.2773C95.0242 41.4117 93.052 43.4713 91.3919 45.4559C90.9551 45.9802 89.919 47.3095 88.2839 49.4439C88.0967 49.6936 87.7971 49.8184 87.3852 49.8184C86.9858 49.8184 86.5676 49.7435 86.1307 49.5937C85.6939 49.4315 85.4754 49.2255 85.4754 48.9759C85.4754 48.851 86.4678 47.1036 88.4524 43.7334C90.437 40.3508 91.4294 38.5097 91.4294 38.2101C91.4294 37.8981 91.2421 37.742 90.8677 37.742C90.5057 37.742 89.7505 38.2912 88.6022 39.3897C85.4442 42.4103 82.9978 45.4122 81.2627 48.3954C81.1504 48.5702 80.932 48.8448 80.6074 49.2193C80.2829 49.5937 80.0645 49.781 79.9521 49.781ZM131.778 38.7531C132.077 38.7531 132.227 38.9965 132.227 39.4833C132.227 39.9576 132.121 40.7814 131.909 41.9547C131.746 42.7411 130.848 43.8645 129.213 45.3249C127.24 47.0723 125.075 48.3206 122.716 49.0695C121.293 49.5188 119.901 49.7435 118.54 49.7435C117.192 49.7435 115.957 49.1756 114.833 48.0397C113.722 46.8914 113.167 45.5371 113.167 43.9768C113.167 42.4041 113.479 40.7814 114.103 39.1088C114.74 37.4237 115.588 35.8198 116.649 34.297C117.723 32.7617 118.983 31.2888 120.431 29.8783C121.892 28.4679 123.408 27.2446 124.981 26.2086C126.554 25.1726 128.201 24.3488 129.924 23.7372C131.646 23.1256 133.282 22.8197 134.829 22.8197C136.053 22.8197 137.095 23.2629 137.956 24.1491C138.406 24.6234 138.63 25.2225 138.63 25.9465C138.63 26.658 138.281 27.5629 137.582 28.6613C136.883 29.7473 136.053 30.7396 135.092 31.6383C134.143 32.537 133.157 33.2984 132.133 33.9225C131.122 34.5466 130.311 34.8587 129.699 34.8587C129.088 34.8587 128.563 34.6714 128.127 34.297C127.69 33.91 127.471 33.5668 127.471 33.2672C127.471 32.9676 127.534 32.6369 127.658 32.2749C127.796 31.9129 127.964 31.7319 128.164 31.7319C128.114 31.7943 128.089 31.8567 128.089 31.9192C128.089 32.0689 128.301 32.1438 128.726 32.1438C129.163 32.1438 129.887 31.7631 130.898 31.0017C131.909 30.2403 132.82 29.3853 133.631 28.4367C134.455 27.488 134.867 26.7766 134.867 26.3022C134.867 25.9777 134.648 25.8154 134.212 25.8154C133.038 25.8154 131.416 26.3646 129.344 27.4631C127.284 28.549 125.312 29.9532 123.427 31.6758C121.542 33.3983 119.901 35.4453 118.503 37.8169C117.117 40.176 116.425 42.298 116.425 44.1828C116.425 44.9691 116.631 45.5995 117.043 46.0738C117.467 46.5481 118.11 46.7853 118.971 46.7853C119.845 46.7853 120.875 46.5356 122.06 46.0363C123.246 45.5371 124.369 44.9254 125.43 44.2015C126.504 43.4775 127.515 42.7348 128.464 41.9734C129.412 41.212 130.167 40.5442 130.729 39.9701C131.303 39.3959 131.597 39.0526 131.609 38.9403C131.622 38.8155 131.678 38.7531 131.778 38.7531ZM145.932 35.6638C145.932 36.4876 145.595 37.2115 144.921 37.8356C144.26 38.4597 143.504 38.7718 142.656 38.7718C142.381 38.7718 142.2 38.7094 142.113 38.5846C142.025 38.4473 141.982 38.2725 141.982 38.0603C141.982 37.8481 142.007 37.6422 142.057 37.4425C141.607 37.5922 141.108 37.8232 140.559 38.1352C140.009 38.4473 139.335 38.9091 138.537 39.5207C137.738 40.1323 137.338 40.5879 137.338 40.8875C137.338 40.9874 137.482 41.0373 137.769 41.0373C138.069 41.0373 138.524 40.9374 139.136 40.7377C139.747 40.5255 140.172 40.4194 140.409 40.4194C140.659 40.4194 140.821 40.4319 140.896 40.4569C141.058 40.5442 141.233 40.7377 141.42 41.0373C141.607 41.3244 141.701 41.5553 141.701 41.73C141.701 41.8923 141.539 42.1107 141.214 42.3853C140.889 42.6599 140.521 42.8721 140.109 43.0219C139.697 43.1592 139.423 43.2653 139.286 43.3402C136.652 44.8131 135.335 45.8241 135.335 46.3734C135.335 47.347 136.165 47.8338 137.825 47.8338C138.886 47.8338 139.953 47.4967 141.027 46.8227C141.938 46.2485 142.756 45.6681 143.479 45.0815C144.216 44.4823 144.678 44.1141 144.865 43.9768C145.065 43.8395 145.214 43.7709 145.314 43.7709C145.639 43.7709 145.801 44.1328 145.801 44.8568C145.801 45.5807 145.757 46.0613 145.67 46.2985C145.583 46.5231 145.333 46.804 144.921 47.141C142.25 49.3129 139.722 50.3988 137.338 50.3988C136.065 50.3988 135.048 50.2241 134.286 49.8746C132.888 49.238 132.189 48.2644 132.189 46.9538C132.189 45.2312 133.382 43.9269 135.766 43.0407C135.291 42.8285 134.985 42.5601 134.848 42.2356C134.711 41.8985 134.642 41.3681 134.642 40.6441C134.642 39.9077 134.979 39.1338 135.653 38.3224C136.34 37.4986 137.176 36.8246 138.162 36.3004C140.359 35.1146 142.319 34.5217 144.041 34.5217C144.453 34.5217 144.871 34.6215 145.296 34.8212C145.72 35.0209 145.932 35.3018 145.932 35.6638ZM154.994 46.7853C154.994 47.3345 155.369 47.6091 156.118 47.6091C156.517 47.6091 157.016 47.4094 157.615 47.0099C158.227 46.6105 158.776 46.1736 159.263 45.6993C160.561 44.4137 161.298 43.7709 161.472 43.7709C161.797 43.7709 161.959 44.2389 161.959 45.1751C161.959 46.1112 161.666 46.7541 161.079 47.1036C159.294 48.7137 157.915 49.6936 156.941 50.0431C156.392 50.2303 155.787 50.3177 155.125 50.3052C154.464 50.2927 153.808 50.0056 153.159 49.4439C152.51 48.8822 152.186 48.202 152.186 47.4031C152.186 46.5918 152.398 45.6744 152.822 44.6508C153.247 43.6273 153.677 42.7536 154.114 42.0296C154.564 41.2932 155.113 40.4444 155.762 39.4833C156.411 38.5097 156.754 37.9043 156.792 37.6671L156.754 37.6297C156.342 37.6671 155.319 38.4785 153.684 40.0637C152.061 41.6489 150.719 43.0282 149.658 44.2015C148.597 45.3748 147.33 46.9413 145.857 48.901C145.445 49.4377 145.108 49.7061 144.846 49.7061C144.584 49.7061 144.235 49.6249 143.798 49.4627C143.348 49.2879 143.074 49.1631 142.974 49.0882C142.874 49.0133 142.824 48.901 142.824 48.7512C142.824 48.6014 142.868 48.4204 142.955 48.2082C143.043 47.9835 143.13 47.8025 143.217 47.6652C143.292 47.5155 143.423 47.2908 143.611 46.9912C143.798 46.6916 144.166 46.0613 144.715 45.1002C145.277 44.1266 146.132 42.6787 147.28 40.7564C148.429 38.8342 149.115 37.6734 149.34 37.2739C149.814 36.4501 150.201 35.851 150.501 35.4765C151.062 34.7651 152.011 34.4093 153.347 34.4093C153.646 34.4093 153.796 34.5966 153.796 34.971C153.796 35.5577 153.253 36.6623 152.167 38.285L151.381 39.4645C153.54 37.068 155.362 35.5514 156.848 34.9148C157.572 34.6028 158.221 34.4468 158.795 34.4468C159.382 34.4468 159.843 34.6028 160.18 34.9148C160.53 35.2269 160.705 35.5764 160.705 35.9633C160.705 36.3378 160.574 36.7934 160.312 37.3301C160.049 37.8544 159.781 38.3287 159.506 38.7531C159.244 39.165 158.895 39.6892 158.458 40.3258C158.021 40.9624 157.784 41.3119 157.746 41.3743C157.709 41.4242 157.609 41.574 157.447 41.8237C157.297 42.0608 157.185 42.2356 157.11 42.3479C157.035 42.4602 156.91 42.6599 156.735 42.947C156.561 43.2216 156.417 43.4526 156.305 43.6398C156.205 43.827 156.074 44.0579 155.912 44.3325C155.762 44.6071 155.637 44.8443 155.537 45.044C155.45 45.2437 155.356 45.4622 155.256 45.6993C155.082 46.1362 154.994 46.4982 154.994 46.7853ZM173.081 25.5533L173.848 25.7405C173.961 25.7405 174.06 25.7967 174.148 25.9091C174.235 26.0214 174.279 26.1275 174.279 26.2273C174.279 26.3272 174.148 26.5956 173.886 27.0324C173.624 27.4693 173.312 27.9686 172.95 28.5303C172.6 29.0795 172.413 29.3791 172.388 29.429C173.361 29.3541 174.048 29.3166 174.447 29.3166C174.859 29.3166 175.14 29.3479 175.29 29.4103C175.44 29.4602 175.608 29.6162 175.795 29.8783C175.995 30.128 176.176 30.3215 176.338 30.4588C176.501 30.5836 176.582 30.777 176.582 31.0392C176.582 31.3013 176.42 31.526 176.095 31.7132C175.783 31.8879 175.446 31.994 175.084 32.0315C172.188 32.3186 170.59 32.4684 170.291 32.4808C169.28 34.0286 167.863 36.4439 166.041 39.7267C164.231 42.997 163.27 45.044 163.157 45.8678C163.107 46.2423 163.083 46.5481 163.083 46.7853C163.083 47.2721 163.338 47.5155 163.85 47.5155C164.362 47.5155 164.93 47.322 165.554 46.935C166.178 46.5356 166.752 46.105 167.276 45.6432C168.674 44.395 169.423 43.7709 169.523 43.7709C169.848 43.7709 170.01 44.3325 170.01 45.4559C170.01 46.0675 169.729 46.6168 169.168 47.1036C167.907 48.1895 166.846 49.0071 165.985 49.5563C165.123 50.1055 164.262 50.3801 163.401 50.3801C163.214 50.3801 163.039 50.3614 162.877 50.3239C161.878 50.1367 161.142 49.7747 160.667 49.238C160.205 48.6888 159.974 47.9523 159.974 47.0287C159.987 46.105 160.262 44.9878 160.798 43.6772C161.348 42.3541 162.034 40.9499 162.858 39.4645C164.206 37.043 165.554 34.7713 166.902 32.6494L166.191 32.743C164.743 32.9052 163.9 32.9864 163.663 32.9864H163.494C163.132 32.9864 162.783 32.9177 162.446 32.7804C162.109 32.6306 161.94 32.4496 161.94 32.2374C161.94 32.0253 162.028 31.8193 162.203 31.6196C162.39 31.4199 162.502 31.2638 162.54 31.1515C162.627 30.8769 162.951 30.5711 163.513 30.2341C164.087 29.8971 164.518 29.7223 164.805 29.7098C165.092 29.6849 165.367 29.6661 165.629 29.6537C165.903 29.6412 166.203 29.6287 166.528 29.6162C166.865 29.6037 167.12 29.5913 167.295 29.5788L168.98 29.5039C170.029 27.9311 170.746 26.9201 171.133 26.4707C171.533 26.0214 171.764 25.778 171.826 25.7405C171.889 25.6906 172.013 25.6657 172.201 25.6657L173.081 25.5533ZM181.319 35.6638C181.319 36.4876 180.982 37.2115 180.308 37.8356C179.646 38.4597 178.891 38.7718 178.042 38.7718C177.768 38.7718 177.587 38.7094 177.499 38.5846C177.412 38.4473 177.368 38.2725 177.368 38.0603C177.368 37.8481 177.393 37.6422 177.443 37.4425C176.994 37.5922 176.494 37.8232 175.945 38.1352C175.396 38.4473 174.722 38.9091 173.923 39.5207C173.124 40.1323 172.725 40.5879 172.725 40.8875C172.725 40.9874 172.868 41.0373 173.156 41.0373C173.455 41.0373 173.911 40.9374 174.522 40.7377C175.134 40.5255 175.558 40.4194 175.795 40.4194C176.045 40.4194 176.207 40.4319 176.282 40.4569C176.445 40.5442 176.619 40.7377 176.807 41.0373C176.994 41.3244 177.087 41.5553 177.087 41.73C177.087 41.8923 176.925 42.1107 176.601 42.3853C176.276 42.6599 175.908 42.8721 175.496 43.0219C175.084 43.1592 174.809 43.2653 174.672 43.3402C172.038 44.8131 170.722 45.8241 170.722 46.3734C170.722 47.347 171.552 47.8338 173.212 47.8338C174.273 47.8338 175.34 47.4967 176.413 46.8227C177.325 46.2485 178.142 45.6681 178.866 45.0815C179.602 44.4823 180.064 44.1141 180.252 43.9768C180.451 43.8395 180.601 43.7709 180.701 43.7709C181.025 43.7709 181.188 44.1328 181.188 44.8568C181.188 45.5807 181.144 46.0613 181.057 46.2985C180.969 46.5231 180.72 46.804 180.308 47.141C177.637 49.3129 175.109 50.3988 172.725 50.3988C171.452 50.3988 170.434 50.2241 169.673 49.8746C168.275 49.238 167.576 48.2644 167.576 46.9538C167.576 45.2312 168.768 43.9269 171.152 43.0407C170.678 42.8285 170.372 42.5601 170.235 42.2356C170.097 41.8985 170.029 41.3681 170.029 40.6441C170.029 39.9077 170.366 39.1338 171.04 38.3224C171.726 37.4986 172.563 36.8246 173.549 36.3004C175.746 35.1146 177.705 34.5217 179.428 34.5217C179.84 34.5217 180.258 34.6215 180.682 34.8212C181.107 35.0209 181.319 35.3018 181.319 35.6638ZM186.73 39.4645C189.676 36.1194 192.184 34.4468 194.256 34.4468C194.768 34.4468 195.186 34.6028 195.511 34.9148C195.848 35.2144 196.016 35.6076 196.016 36.0944C196.016 36.5812 195.667 37.3988 194.968 38.5471C194.281 39.683 193.645 40.6441 193.058 41.4305C192.746 41.8299 192.39 42.0296 191.991 42.0296C191.604 42.0296 191.298 41.8861 191.073 41.599C190.861 41.3119 190.755 40.9749 190.755 40.5879C190.755 39.7267 191.217 38.7531 192.141 37.6671L192.103 37.6297C191.691 37.6671 190.668 38.4785 189.033 40.0637C187.41 41.6489 186.025 43.0719 184.876 44.3325C183.74 45.5807 182.505 47.1036 181.169 48.901C180.782 49.4377 180.451 49.7061 180.177 49.7061C179.915 49.7061 179.565 49.6249 179.128 49.4627C178.679 49.2879 178.41 49.1631 178.323 49.0882C178.223 49.0133 178.173 48.8885 178.173 48.7137C178.173 48.539 178.223 48.3393 178.323 48.1146C178.423 47.8774 178.61 47.5467 178.885 47.1223C179.147 46.6979 179.546 46.0114 180.083 45.0627C180.632 44.1141 181.481 42.6787 182.629 40.7564C183.778 38.8342 184.464 37.6734 184.689 37.2739C185.163 36.4501 185.55 35.851 185.85 35.4765C186.411 34.7651 187.36 34.4093 188.696 34.4093C188.995 34.4093 189.145 34.5966 189.145 34.971C189.145 35.5577 188.602 36.6623 187.516 38.285L186.73 39.4645Z" fill="#363744"/>
</svg>
