<svg width="75" height="58" viewBox="0 0 75 58" fill="none" xmlns="http://www.w3.org/2000/svg">
<rect y="12" width="55" height="46" rx="8" fill="#98FF98"/>
<path d="M67.9906 0.688965H21.1197C17.7933 0.688965 15.0718 3.4105 15.0718 6.73683V9.00478C15.0718 9.83636 15.7522 10.5167 16.5838 10.5167C17.4153 10.5167 18.0957 9.83636 18.0957 9.00478V6.73683C18.0957 6.43444 18.1713 6.13204 18.2469 5.82965L35.1809 20.3445L18.2469 34.8594C18.1713 34.557 18.0957 34.2546 18.0957 33.9522V31.6843C18.0957 30.8527 17.4153 30.1723 16.5838 30.1723C15.7522 30.1723 15.0718 30.8527 15.0718 31.6843V33.9522C15.0718 37.2785 17.7933 40.0001 21.1197 40.0001H67.9906C71.3169 40.0001 74.0385 37.2785 74.0385 33.9522V6.73683C74.0385 3.4105 71.3169 0.688965 67.9906 0.688965ZM20.5149 3.7885C20.6661 3.7129 20.8929 3.7129 21.1197 3.7129H67.9906C68.2174 3.7129 68.4442 3.7129 68.5954 3.7885L45.5379 23.5197C44.9331 23.9732 44.1771 23.9732 43.5724 23.5197L20.5149 3.7885ZM67.9906 36.9761H21.1197C20.8929 36.9761 20.6661 36.9761 20.5149 36.9005L37.5245 22.3101L41.6068 25.8632C42.4384 26.6192 43.4968 26.9972 44.5551 26.9972C45.6135 26.9972 46.6719 26.6192 47.5035 25.8632L51.5858 22.3101L68.5954 36.9005C68.4442 36.9761 68.2174 36.9761 67.9906 36.9761ZM71.0145 33.9522C71.0145 34.2546 70.9389 34.557 70.8633 34.8594L53.9293 20.3445L70.8633 5.82965C70.9389 6.13204 71.0145 6.43444 71.0145 6.73683V33.9522ZM10.5359 16.5646C10.5359 15.733 11.2163 15.0526 12.0479 15.0526H21.1197C21.9512 15.0526 22.6316 15.733 22.6316 16.5646C22.6316 17.3962 21.9512 18.0766 21.1197 18.0766H12.0479C11.2163 18.0766 10.5359 17.3962 10.5359 16.5646ZM21.1197 25.6364H7.51197C6.68038 25.6364 6 24.956 6 24.1244C6 23.2929 6.68038 22.6125 7.51197 22.6125H21.1197C21.9512 22.6125 22.6316 23.2929 22.6316 24.1244C22.6316 24.956 21.9512 25.6364 21.1197 25.6364Z" fill="black"/>
</svg>
