<svg width="14" height="24" viewBox="0 0 14 24" fill="none" xmlns="http://www.w3.org/2000/svg">
<path d="M12.9523 21.4081C12.9523 22.1997 12.3048 22.8473 11.5131 22.8473H1.7986C1.00695 22.8473 0.359375 22.1997 0.359375 21.4081V2.33872C0.359375 1.54707 1.00695 0.899536 1.7986 0.899536H11.5132C12.3048 0.899536 12.9523 1.54707 12.9523 2.33872V21.4081H12.9523Z" fill="#656D78"/>
<path d="M12.9523 21.4081C12.9523 22.1997 12.3048 22.8473 11.5131 22.8473H1.7986C1.00695 22.8473 0.359375 22.1997 0.359375 21.4081V2.33872C0.359375 1.54707 1.00695 0.899536 1.7986 0.899536H11.5132C12.3048 0.899536 12.9523 1.54707 12.9523 2.33872V21.4081H12.9523Z" fill="black" fill-opacity="0.125"/>
<path opacity="0.2" d="M1.07897 21.4081V2.33872C1.07897 1.54707 1.72654 0.899536 2.51819 0.899536H1.7986C1.00695 0.899536 0.359375 1.54707 0.359375 2.33872V21.408C0.359375 22.1997 1.00695 22.8473 1.7986 22.8473H2.51819C1.72654 22.8473 1.07897 22.1997 1.07897 21.4081Z" fill="white"/>
<path opacity="0.2" d="M12.2722 21.4081V2.33872C12.2722 1.54707 11.6247 0.899536 10.833 0.899536H11.5526C12.3442 0.899536 12.9918 1.54707 12.9918 2.33872V21.408C12.9918 22.1997 12.3442 22.8473 11.5526 22.8473H10.833C11.6246 22.8473 12.2722 22.1997 12.2722 21.4081Z" fill="black"/>
<path d="M12.9523 20.6885C12.9523 21.4801 12.3048 22.1277 11.5131 22.1277H1.7986C1.00695 22.1277 0.359375 21.4801 0.359375 20.6885V1.61911C0.359375 0.827464 1.00695 0.179932 1.7986 0.179932H11.5132C12.3048 0.179932 12.9523 0.827464 12.9523 1.61911V20.6885H12.9523Z" fill="#656D78"/>
<path opacity="0.2" d="M1.07897 20.6885V1.61911C1.07897 0.827464 1.72654 0.179932 2.51819 0.179932H1.7986C1.00695 0.179932 0.359375 0.827464 0.359375 1.61911V20.6884C0.359375 21.4801 1.00695 22.1276 1.7986 22.1276H2.51819C1.72654 22.1277 1.07897 21.4801 1.07897 20.6885Z" fill="white"/>
<path opacity="0.2" d="M12.2722 20.6885V1.61911C12.2722 0.827464 11.6247 0.179932 10.833 0.179932H11.5526C12.3442 0.179932 12.9918 0.827464 12.9918 1.61911V20.6884C12.9918 21.4801 12.3442 22.1276 11.5526 22.1276H10.833C11.6246 22.1277 12.2722 21.4801 12.2722 20.6885Z" fill="black"/>
<path d="M0.359375 1.61908H12.9523V18.8894H0.359375V1.61908Z" fill="#5D9CEC"/>
<path opacity="0.3" d="M2.47949 18.8894H4.71455L9.34205 1.61908H7.10699L2.47949 18.8894ZM6.20469 18.8894L10.8322 1.61908H10.0869L5.45942 18.8894H6.20469Z" fill="white"/>
<path d="M6.65626 21.408C7.15299 21.408 7.55568 21.0053 7.55568 20.5086C7.55568 20.0118 7.15299 19.6092 6.65626 19.6092C6.15952 19.6092 5.75684 20.0118 5.75684 20.5086C5.75684 21.0053 6.15952 21.408 6.65626 21.408Z" fill="#AAB2BD"/>
<path opacity="0.5" d="M6.11663 20.5086C6.11663 20.0736 6.42564 19.7106 6.83604 19.6273C6.77686 19.6152 6.71659 19.609 6.65617 19.6091C6.1595 19.6091 5.75684 20.0117 5.75684 20.5086C5.75684 21.0054 6.1595 21.408 6.65617 21.408C6.71783 21.408 6.77793 21.4017 6.83604 21.3898C6.42564 21.3062 6.11663 20.9435 6.11663 20.5086Z" fill="white"/>
<path opacity="0.2" d="M7.19602 20.5086C7.19602 20.9436 6.88696 21.3062 6.47656 21.3898C6.53468 21.4017 6.59477 21.408 6.65648 21.408C7.15315 21.408 7.55581 21.0054 7.55581 20.5086C7.55581 20.0117 7.15315 19.6091 6.65648 19.6091C6.59481 19.6091 6.53472 19.6154 6.47656 19.6273C6.88696 19.7106 7.19602 20.0736 7.19602 20.5086Z" fill="black"/>
<path d="M11.5239 1.07944C11.4248 1.07944 11.3426 0.998975 11.3426 0.899525C11.3426 0.800074 11.4213 0.719604 11.5204 0.719604H11.5239C11.6237 0.719604 11.7038 0.800074 11.7038 0.899525C11.7038 0.998975 11.6237 1.07944 11.5239 1.07944ZM10.8043 1.07944C10.7052 1.07944 10.623 0.998975 10.623 0.899525C10.623 0.800074 10.7017 0.719604 10.8008 0.719604H10.8043C10.9041 0.719604 10.9842 0.800074 10.9842 0.899525C10.9842 0.998975 10.9041 1.07944 10.8043 1.07944Z" fill="#3A3847"/>
<path d="M11.5133 22.3076H1.79879C0.905935 22.3076 0.179688 21.5813 0.179688 20.6885V1.6191C0.179688 0.726247 0.905935 0 1.79879 0H11.5133C12.4062 0 13.1325 0.726247 13.1325 1.6191V20.6884C13.1324 21.5813 12.4062 22.3076 11.5133 22.3076ZM1.79879 0.359795C1.10448 0.359795 0.539483 0.924834 0.539483 1.6191V20.6884C0.539483 21.3827 1.10448 21.9477 1.79879 21.9477H11.5133C12.2077 21.9477 12.7727 21.3827 12.7727 20.6884V1.6191C12.7727 0.924789 12.2076 0.359795 11.5133 0.359795H1.79879Z" fill="#3A3847"/>
<path d="M11.5133 23.0272H1.79879C0.905935 23.0272 0.179688 22.3009 0.179688 21.4081C0.179688 21.3087 0.260157 21.2282 0.359608 21.2282C0.459058 21.2282 0.539528 21.3087 0.539528 21.4081C0.539528 22.1024 1.10452 22.6674 1.79883 22.6674H11.5134C12.2077 22.6674 12.7727 22.1024 12.7727 21.4081C12.7727 21.3845 12.7773 21.3611 12.7864 21.3392C12.7954 21.3174 12.8087 21.2976 12.8254 21.2809C12.8421 21.2642 12.8619 21.2509 12.8837 21.2419C12.9056 21.2328 12.929 21.2282 12.9526 21.2282C13.052 21.2282 13.1325 21.3087 13.1325 21.4081C13.1324 22.3009 12.4062 23.0272 11.5133 23.0272Z" fill="#3A3847"/>
<path d="M12.9527 21.588C12.9291 21.588 12.9057 21.5834 12.8839 21.5743C12.862 21.5653 12.8422 21.552 12.8255 21.5353C12.8088 21.5186 12.7955 21.4988 12.7865 21.4769C12.7775 21.4551 12.7728 21.4317 12.7728 21.4081V20.6885C12.7728 20.6649 12.7775 20.6415 12.7865 20.6196C12.7955 20.5978 12.8088 20.578 12.8255 20.5613C12.8422 20.5446 12.862 20.5313 12.8839 20.5223C12.9057 20.5132 12.9291 20.5086 12.9527 20.5086C13.0522 20.5086 13.1326 20.589 13.1326 20.6885V21.4081C13.1326 21.5075 13.0522 21.588 12.9527 21.588ZM0.359795 21.588C0.260389 21.588 0.179875 21.5075 0.179875 21.4081V20.6885C0.179875 20.589 0.260344 20.5086 0.359795 20.5086C0.459246 20.5086 0.539715 20.589 0.539715 20.6885V21.4081C0.539715 21.5075 0.459246 21.588 0.359795 21.588ZM12.593 1.79904H0.71959C0.620185 1.79904 0.53967 1.71857 0.53967 1.61912C0.53967 1.51966 0.62014 1.4392 0.71959 1.4392H12.593C12.6924 1.4392 12.7728 1.51966 12.7728 1.61912C12.7728 1.71857 12.6924 1.79904 12.593 1.79904ZM12.593 19.0693H0.71959C0.620185 19.0693 0.53967 18.9889 0.53967 18.8895C0.53967 18.79 0.62014 18.7096 0.71959 18.7096H12.593C12.6924 18.7096 12.7728 18.79 12.7728 18.8895C12.7728 18.9889 12.6924 19.0693 12.593 19.0693ZM6.65646 21.588C6.06124 21.588 5.57707 21.1038 5.57707 20.5086C5.57707 19.9134 6.06124 19.4292 6.65646 19.4292C7.2515 19.4292 7.73566 19.9134 7.73566 20.5086C7.73566 21.1038 7.2515 21.588 6.65646 21.588ZM6.65646 19.789C6.2596 19.789 5.93687 20.1115 5.93687 20.5086C5.93687 20.9056 6.2596 21.2282 6.65646 21.2282C7.05332 21.2282 7.37587 20.9056 7.37587 20.5086C7.37587 20.1115 7.05332 19.789 6.65646 19.789ZM7.91559 1.07944H5.39697C5.29757 1.07944 5.2171 0.998975 5.2171 0.899525C5.2171 0.800074 5.29757 0.719604 5.39697 0.719604H7.91559C8.01504 0.719604 8.09546 0.800074 8.09546 0.899525C8.09546 0.998975 8.01504 1.07944 7.91559 1.07944ZM13.1326 4.31765C13.0332 4.31765 12.9527 4.23718 12.9527 4.13773V3.41814C12.9527 3.31873 13.0332 3.23826 13.1326 3.23826C13.2321 3.23826 13.3126 3.31873 13.3126 3.41814V4.13777C13.3126 4.1614 13.3079 4.1848 13.2989 4.20662C13.2898 4.22845 13.2766 4.24829 13.2599 4.26499C13.2432 4.2817 13.2233 4.29494 13.2015 4.30398C13.1797 4.31301 13.1563 4.31766 13.1326 4.31765ZM0.17992 4.67744C0.0804693 4.67744 0 4.59697 0 4.49752V3.77793C0 3.67853 0.0804693 3.59801 0.17992 3.59801C0.279326 3.59801 0.35984 3.67848 0.35984 3.77793V4.49752C0.359846 4.52115 0.355196 4.54455 0.346157 4.56638C0.337117 4.58821 0.323864 4.60805 0.307156 4.62476C0.290448 4.64147 0.270611 4.65472 0.24878 4.66376C0.226948 4.6728 0.203549 4.67745 0.17992 4.67744ZM13.1326 7.5558C13.0332 7.5558 12.9527 7.47533 12.9527 7.37588V5.21711C12.9527 5.11766 13.0332 5.03719 13.1326 5.03719C13.2321 5.03719 13.3126 5.11766 13.3126 5.21711V7.37588C13.3126 7.47538 13.2321 7.5558 13.1326 7.5558Z" fill="#3A3847"/>
</svg>
