<svg width="74" height="70" viewBox="0 0 74 70" fill="none" xmlns="http://www.w3.org/2000/svg">
<rect y="24" width="55" height="46" rx="8" fill="#98FF98"/>
<path d="M70.9091 28.4038V20.831C70.9103 19.9945 70.7464 19.166 70.4269 18.393C70.1073 17.6199 69.6384 16.9175 69.0469 16.326C68.4554 15.7345 67.753 15.2655 66.9799 14.946C66.2068 14.6264 65.3783 14.4626 64.5418 14.4638H60.4L26.5546 0.369233C25.9791 0.126168 25.3608 0.0006301 24.7361 2.36588e-06C24.1114 -0.000625369 23.4928 0.12367 22.9169 0.365578C22.3409 0.607485 21.8191 0.962122 21.3822 1.40863C20.9453 1.85514 20.6021 2.38451 20.3727 2.9656L15.7673 14.4638H12.3673C11.5308 14.4626 10.7022 14.6264 9.92919 14.946C9.15612 15.2655 8.45371 15.7345 7.86222 16.326C7.27072 16.9175 6.80175 17.6199 6.4822 18.393C6.16265 19.166 5.99879 19.9945 6.00001 20.831V57.551C5.99879 58.3876 6.16265 59.2161 6.4822 59.9891C6.80175 60.7622 7.27072 61.4646 7.86222 62.0561C8.45371 62.6476 9.15612 63.1166 9.92919 63.4361C10.7022 63.7557 11.5308 63.9195 12.3673 63.9183H64.5418C65.3783 63.9195 66.2068 63.7557 66.9799 63.4361C67.753 63.1166 68.4554 62.6476 69.0469 62.0561C69.6384 61.4646 70.1073 60.7622 70.4269 59.9891C70.7464 59.2161 70.9103 58.3876 70.9091 57.551V49.9783C71.7357 49.9496 72.5192 49.6021 73.0954 49.0086C73.6715 48.4152 73.9957 47.6218 74 46.7947V31.5874C73.9957 30.7603 73.6715 29.9669 73.0954 29.3734C72.5192 28.78 71.7357 28.4325 70.9091 28.4038ZM23.2473 4.10923C23.3214 3.90794 23.4367 3.72429 23.5857 3.56997C23.7347 3.41565 23.9142 3.29403 24.1127 3.21287C24.5104 3.0586 24.9514 3.0586 25.3491 3.21287L52.3636 14.4638H44.8836L26.5855 8.37469C26.208 8.24328 25.7942 8.26323 25.4312 8.43037C25.0681 8.59751 24.7838 8.89882 24.6382 9.27105L22.6291 14.4638H19.1055L23.2473 4.10923ZM35.1164 14.4638H25.9673L26.9873 11.7747L35.1164 14.4638ZM67.8182 57.551C67.8174 58.4197 67.4719 59.2526 66.8577 59.8669C66.2434 60.4811 65.4105 60.8266 64.5418 60.8274H12.3673C11.4986 60.8266 10.6657 60.4811 10.0514 59.8669C9.43718 59.2526 9.09173 58.4197 9.09092 57.551V20.831C9.09659 19.9639 9.44359 19.1338 10.0568 18.5206C10.67 17.9074 11.5001 17.5604 12.3673 17.5547H64.5418C65.409 17.5604 66.2391 17.9074 66.8523 18.5206C67.4655 19.1338 67.8125 19.9639 67.8182 20.831V28.3729H53.9091C51.0399 28.3729 48.2883 29.5126 46.2595 31.5414C44.2307 33.5702 43.0909 36.3219 43.0909 39.191C43.0909 42.0602 44.2307 44.8119 46.2595 46.8407C48.2883 48.8695 51.0399 50.0092 53.9091 50.0092H67.8182V57.551ZM70.9091 46.7947C70.9069 46.8268 70.8932 46.857 70.8705 46.8797C70.8477 46.9024 70.8175 46.9161 70.7855 46.9183H53.9091C51.8597 46.9183 49.8942 46.1042 48.4451 44.6551C46.9959 43.2059 46.1818 41.2404 46.1818 39.191C46.1818 37.1416 46.9959 35.1762 48.4451 33.727C49.8942 32.2779 51.8597 31.4638 53.9091 31.4638L70.9091 31.5874V46.7947Z" fill="black"/>
<path d="M53.9091 34.5547C52.9921 34.5547 52.0957 34.8266 51.3332 35.336C50.5708 35.8455 49.9765 36.5696 49.6256 37.4168C49.2747 38.264 49.1829 39.1962 49.3618 40.0955C49.5407 40.9949 49.9823 41.821 50.6307 42.4694C51.2791 43.1179 52.1052 43.5594 53.0046 43.7383C53.9039 43.9172 54.8361 43.8254 55.6833 43.4745C56.5305 43.1236 57.2546 42.5293 57.7641 41.7669C58.2735 41.0044 58.5454 40.108 58.5454 39.191C58.5454 37.9614 58.057 36.7821 57.1875 35.9126C56.318 35.0431 55.1387 34.5547 53.9091 34.5547ZM53.9091 40.7365C53.6034 40.7365 53.3046 40.6459 53.0505 40.476C52.7963 40.3062 52.5982 40.0649 52.4813 39.7825C52.3643 39.5001 52.3337 39.1893 52.3933 38.8895C52.4529 38.5897 52.6001 38.3144 52.8163 38.0982C53.0324 37.8821 53.3078 37.7349 53.6076 37.6753C53.9074 37.6156 54.2181 37.6463 54.5005 37.7632C54.7829 37.8802 55.0243 38.0783 55.1941 38.3324C55.3639 38.5866 55.4545 38.8854 55.4545 39.191C55.4545 39.6009 55.2917 39.994 55.0019 40.2838C54.712 40.5737 54.319 40.7365 53.9091 40.7365ZM24.5454 25.282C24.5454 25.6918 24.3826 26.0849 24.0928 26.3747C23.803 26.6646 23.4099 26.8274 23 26.8274H16.8182C16.4083 26.8274 16.0152 26.6646 15.7254 26.3747C15.4355 26.0849 15.2727 25.6918 15.2727 25.282C15.2727 24.8721 15.4355 24.479 15.7254 24.1891C16.0152 23.8993 16.4083 23.7365 16.8182 23.7365H23C23.4099 23.7365 23.803 23.8993 24.0928 24.1891C24.3826 24.479 24.5454 24.8721 24.5454 25.282ZM30.7273 31.4638C30.7273 31.8736 30.5644 32.2667 30.2746 32.5566C29.9848 32.8464 29.5917 33.0092 29.1818 33.0092H16.8182C16.4083 33.0092 16.0152 32.8464 15.7254 32.5566C15.4355 32.2667 15.2727 31.8736 15.2727 31.4638C15.2727 31.0539 15.4355 30.6608 15.7254 30.371C16.0152 30.0811 16.4083 29.9183 16.8182 29.9183H29.1818C29.5917 29.9183 29.9848 30.0811 30.2746 30.371C30.5644 30.6608 30.7273 31.0539 30.7273 31.4638Z" fill="black"/>
</svg>
