<svg width="15" height="15" viewBox="0 0 15 15" fill="none" xmlns="http://www.w3.org/2000/svg">
<path d="M6.72644 0.0028262C4.9434 0.00581538 3.23423 0.715452 1.97343 1.97626C0.712625 3.23706 0.00298918 4.94622 0 6.72927C0.00149021 8.51381 0.710286 10.225 1.97109 11.4879C3.2319 12.7509 4.9419 13.4625 6.72644 13.467C8.30913 13.467 9.76747 12.9102 10.9206 11.9889L13.7214 14.7897C13.8633 14.9216 14.0508 14.9934 14.2445 14.99C14.4382 14.9866 14.6231 14.9083 14.7602 14.7715C14.8974 14.6347 14.9762 14.45 14.9802 14.2563C14.9841 14.0626 14.9128 13.8749 14.7812 13.7327L11.9804 10.929C12.937 9.73937 13.4585 8.25864 13.4585 6.73209C13.4585 3.02407 10.4345 0.0028262 6.72644 0.0028262ZM6.72644 1.50073C9.62616 1.50073 11.9606 3.83237 11.9606 6.72927C11.9606 9.62616 9.62616 11.9719 6.72644 11.9719C3.82672 11.9719 1.49508 9.63463 1.49508 6.73492C1.49508 3.8352 3.82672 1.50073 6.72644 1.50073Z" fill="#646464"/>
</svg>
