<svg width="155" height="31" viewBox="0 0 155 31" fill="none" xmlns="http://www.w3.org/2000/svg">
<path d="M138.549 2.92705C138.848 2.00574 140.152 2.00574 140.451 2.92705L142.755 10.0193C142.889 10.4313 143.273 10.7102 143.707 10.7102H151.164C152.132 10.7102 152.535 11.9499 151.751 12.5193L145.718 16.9025C145.368 17.1571 145.221 17.6085 145.355 18.0205L147.66 25.1127C147.959 26.034 146.904 26.8001 146.121 26.2307L140.088 21.8475C139.737 21.5929 139.263 21.5929 138.912 21.8475L132.879 26.2307C132.096 26.8001 131.041 26.034 131.34 25.1127L133.645 18.0205C133.779 17.6085 133.632 17.1571 133.282 16.9025L127.249 12.5193C126.465 11.9499 126.868 10.7102 127.836 10.7102H135.293C135.727 10.7102 136.111 10.4313 136.245 10.0193L138.549 2.92705Z" fill="#DEDEDE"/>
<path d="M107.549 2.92705C107.848 2.00574 109.152 2.00574 109.451 2.92705L111.755 10.0193C111.889 10.4313 112.273 10.7102 112.707 10.7102H120.164C121.132 10.7102 121.535 11.9499 120.751 12.5193L114.718 16.9025C114.368 17.1571 114.221 17.6085 114.355 18.0205L116.66 25.1127C116.959 26.034 115.904 26.8001 115.121 26.2307L109.088 21.8475C108.737 21.5929 108.263 21.5929 107.912 21.8475L101.879 26.2307C101.096 26.8001 100.041 26.034 100.34 25.1127L102.645 18.0205C102.779 17.6085 102.632 17.1571 102.282 16.9025L96.2485 12.5193C95.4648 11.9499 95.8676 10.7102 96.8363 10.7102H104.293C104.727 10.7102 105.111 10.4313 105.245 10.0193L107.549 2.92705Z" fill="#DDDD00"/>
<path d="M76.5489 2.92705C76.8483 2.00574 78.1517 2.00574 78.4511 2.92705L80.7555 10.0193C80.8893 10.4313 81.2733 10.7102 81.7065 10.7102H89.1637C90.1324 10.7102 90.5352 11.9499 89.7515 12.5193L83.7185 16.9025C83.368 17.1571 83.2213 17.6085 83.3552 18.0205L85.6596 25.1127C85.959 26.034 84.9045 26.8001 84.1208 26.2307L78.0878 21.8475C77.7373 21.5929 77.2627 21.5929 76.9122 21.8475L70.8792 26.2307C70.0955 26.8001 69.041 26.034 69.3404 25.1127L71.6448 18.0205C71.7787 17.6085 71.632 17.1571 71.2815 16.9025L65.2485 12.5193C64.4648 11.9499 64.8676 10.7102 65.8363 10.7102H73.2935C73.7267 10.7102 74.1107 10.4313 74.2445 10.0193L76.5489 2.92705Z" fill="#DDDD00"/>
<path d="M45.5489 2.92705C45.8483 2.00574 47.1517 2.00574 47.4511 2.92705L49.7555 10.0193C49.8893 10.4313 50.2733 10.7102 50.7065 10.7102H58.1637C59.1324 10.7102 59.5352 11.9499 58.7515 12.5193L52.7185 16.9025C52.368 17.1571 52.2213 17.6085 52.3552 18.0205L54.6596 25.1127C54.959 26.034 53.9045 26.8001 53.1208 26.2307L47.0878 21.8475C46.7373 21.5929 46.2627 21.5929 45.9122 21.8475L39.8792 26.2307C39.0955 26.8001 38.041 26.034 38.3404 25.1127L40.6448 18.0205C40.7787 17.6085 40.632 17.1571 40.2815 16.9025L34.2485 12.5193C33.4648 11.9499 33.8676 10.7102 34.8363 10.7102H42.2935C42.7267 10.7102 43.1107 10.4313 43.2445 10.0193L45.5489 2.92705Z" fill="#DDDD00"/>
<path d="M14.5489 2.92705C14.8483 2.00574 16.1517 2.00574 16.4511 2.92705L18.7555 10.0193C18.8893 10.4313 19.2733 10.7102 19.7065 10.7102H27.1637C28.1324 10.7102 28.5352 11.9499 27.7515 12.5193L21.7185 16.9025C21.368 17.1571 21.2213 17.6085 21.3552 18.0205L23.6596 25.1127C23.959 26.034 22.9045 26.8001 22.1208 26.2307L16.0878 21.8475C15.7373 21.5929 15.2627 21.5929 14.9122 21.8475L8.87923 26.2307C8.09551 26.8001 7.04103 26.034 7.34039 25.1127L9.64478 18.0205C9.77866 17.6085 9.632 17.1571 9.28151 16.9025L3.24852 12.5193C2.46481 11.9499 2.86758 10.7102 3.83631 10.7102H11.2935C11.7267 10.7102 12.1107 10.4313 12.2445 10.0193L14.5489 2.92705Z" fill="#DDDD00"/>
</svg>
