<svg width="198" height="198" viewBox="0 0 198 198" fill="none" xmlns="http://www.w3.org/2000/svg">
<path d="M99 198C153.676 198 198 153.676 198 99C198 44.3238 153.676 0 99 0C44.3238 0 0 44.3238 0 99C0 153.676 44.3238 198 99 198Z" fill="#98FF98"/>
<path d="M196.939 113.535C191.475 150.66 165.406 181.071 130.729 192.812L42.3945 104.462L61.5371 85.3196L82.8647 106.651L136.46 53.0557L196.939 113.535Z" fill="url(#paint0_linear_144_5406)"/>
<path d="M155.603 72.1944L102.007 125.794L98.9986 128.802L82.8647 144.932L63.7221 125.794L42.3945 104.462L61.5371 85.3196L82.8647 106.651L98.9986 90.5171L136.46 53.0557L155.603 72.1944Z" fill="#FFF5F5"/>
<defs>
<linearGradient id="paint0_linear_144_5406" x1="78.7616" y1="68.0952" x2="174.331" y2="163.665" gradientUnits="userSpaceOnUse">
<stop stop-color="#98FF98"/>
<stop offset="1" stop-color="#288900" stop-opacity="0"/>
</linearGradient>
</defs>
</svg>
