<svg width="69" height="70" viewBox="0 0 69 70" fill="none" xmlns="http://www.w3.org/2000/svg">
<rect y="24" width="55" height="46" rx="8" fill="#98FF98"/>
<path d="M53.5 49.5C52.81 49.5 52.25 50.06 52.25 50.75C52.25 51.44 52.81 52 53.5 52C54.19 52 54.75 51.44 54.75 50.75C54.75 50.06 54.19 49.5 53.5 49.5Z" fill="black"/>
<path d="M56.5778 45.4579L50.6365 43.4779L48.5036 39.212C50.4251 37.2563 51.7593 34.6685 52.2091 31.9694L52.4751 30.375H54.75C56.8177 30.375 58.5 28.6927 58.5 26.625V18.75C58.5 8.41125 50.0887 0 39.75 0C29.3848 0 21 8.38713 21 18.75V26.625C21 28.2545 22.0451 29.644 23.5 30.16V31.625C23.5 33.6927 25.1823 35.375 27.25 35.375H28.3477C28.8881 36.5518 29.5942 37.6452 30.4445 38.6217C30.6219 38.825 30.8056 39.0226 30.9953 39.2144L28.8635 43.4779L22.9221 45.458C16.014 47.7615 11 55.0339 11 62.75C11 63.4404 11.5596 64 12.25 64H67.25C67.9402 64 68.5 63.4404 68.5 62.75C68.5 55.0339 63.4861 47.7615 56.5778 45.4579ZM56 26.625C56 27.3142 55.4392 27.875 54.75 27.875H52.8423C53.16 25.4137 53.3717 22.7946 53.4569 20.215C53.4594 20.1423 53.4614 20.0715 53.4636 20H56V26.625ZM24.75 27.875C24.0608 27.875 23.5 27.3142 23.5 26.625V20H26.0373C26.0414 20.1304 26.0457 20.2614 26.0506 20.3932L26.0511 20.4066V20.4077C26.1386 22.9167 26.3476 25.4679 26.6581 27.8749H24.75V27.875ZM27.25 32.875C26.5608 32.875 26 32.3142 26 31.625V30.375H27.0247L27.2908 31.9699C27.3419 32.2737 27.4037 32.5755 27.476 32.875H27.25ZM26.0021 17.5H23.5475C24.1806 9.12237 31.1721 2.5 39.75 2.5C48.2898 2.5 55.312 9.1215 55.9524 17.5H53.498C53.408 10.5966 47.7864 5 40.8689 5H38.6314C31.714 5 26.092 10.5966 26.0021 17.5ZM38.6313 7.5H40.8688C46.4699 7.5 51.0033 12.0814 51 17.6763C51 18.0696 50.9969 18.4121 50.9902 18.7237L50.9901 18.736L49.4266 18.5126C45.1791 17.9061 41.1686 15.9009 38.1339 12.8661C37.8994 12.6317 37.5815 12.5 37.25 12.5C33.893 12.5 30.6795 14.0295 28.5553 16.6135C29.0788 11.5236 33.3816 7.5 38.6313 7.5ZM30.0675 32.875C29.4417 30.7934 28.7257 24.6684 28.5675 20.7434L30.2499 18.5001C31.795 16.4406 34.1989 15.161 36.756 15.0141C40.1206 18.2161 44.4734 20.3306 49.0731 20.9874L50.9134 21.2504C50.7904 23.861 50.539 26.4808 50.1789 28.8901L50.1785 28.8926C50.064 29.6673 49.9738 30.1657 49.7433 31.5581C49.0813 35.5287 46.1185 39.1194 42.2074 40.0973C40.594 40.4991 38.9066 40.4991 37.2932 40.0973C34.8511 39.4868 32.6119 37.797 31.1667 35.375H33.715C34.231 36.8299 35.6204 37.875 37.25 37.875H39.75C41.8219 37.875 43.5 36.197 43.5 34.125C43.5 32.0573 41.8177 30.375 39.75 30.375H37.25C35.5841 30.375 34.2153 31.451 33.7129 32.875H30.0675ZM37.1449 42.627C38.0015 42.8079 38.8745 42.8994 39.75 42.9C40.4339 42.9 41.1179 42.8428 41.7941 42.7318L39.5854 45.0676L37.1449 42.627ZM37.8669 46.8849L33.9021 51.0776C32.8098 48.9867 31.8744 46.8175 31.1035 44.588L32.5924 41.6102L37.8669 46.8849ZM46.6958 41.1867L48.3963 44.5879C47.6254 46.8181 46.6898 48.988 45.5973 51.0795L41.3537 46.836L46.6958 41.1867ZM36 34.125C36 33.4349 36.5598 32.875 37.25 32.875H39.75C40.4392 32.875 41 33.4358 41 34.125C41 34.8152 40.4401 35.375 39.75 35.375H37.25C36.5608 35.375 36 34.8142 36 34.125ZM13.55 61.5C14.0454 55.3076 18.1665 49.6791 23.7128 47.8296L28.9745 46.0761C29.9398 48.7447 31.13 51.3265 32.5324 53.7936L32.5394 53.8063L32.5395 53.8065C33.5703 55.6176 34.713 57.3626 35.961 59.0314L37.4988 61.5H13.55ZM39.75 60.3857L38.0548 57.6641C38.0358 57.6337 38.0155 57.604 37.994 57.5752C36.9813 56.2236 36.0411 54.819 35.1775 53.3675L39.6354 48.6533L44.3326 53.3505C43.4664 54.808 42.5229 56.2182 41.5062 57.575C41.445 57.6566 41.5319 57.528 39.75 60.3857ZM42.0013 61.5L43.5389 59.0315C44.7966 57.3499 45.9474 55.591 46.9844 53.765C46.9906 53.754 46.9965 53.7428 47.0028 53.7318L47.005 53.7277C48.3913 51.2806 49.569 48.721 50.5255 46.0761L55.7871 47.8296C61.3335 49.6791 65.4546 55.3076 65.95 61.5H42.0013Z" fill="black"/>
<path d="M62.1932 56.4414C61.3578 54.7693 60.1342 53.2838 58.6546 52.1455C58.1073 51.7244 57.3226 51.8268 56.9017 52.374C56.4807 52.9213 56.5831 53.706 57.1302 54.127C58.3119 55.0361 59.2892 56.2228 59.9566 57.5586C60.2657 58.1773 61.0169 58.4263 61.6334 58.1183C62.2509 57.8098 62.5016 57.059 62.1932 56.4414Z" fill="black"/>
</svg>
