<svg width="30" height="19" viewBox="0 0 30 19" fill="none" xmlns="http://www.w3.org/2000/svg">
<path d="M29.8569 17.7192C29.8569 18.3312 29.3613 18.8268 28.7493 18.8268H1.10735C0.495742 18.8268 0 18.3312 0 17.7192V1.10752C0 0.495917 0.495742 0 1.10735 0H28.7494C29.3614 0 29.857 0.495917 29.857 1.10752L29.8569 17.7192Z" fill="#21246E"/>
<path d="M11.3479 5.45077L8.0259 13.3779H5.85759L4.22396 7.05229C4.12337 6.66215 4.0374 6.52024 3.73585 6.3546C3.24192 6.0875 2.42936 5.83694 1.71191 5.68092L1.76209 5.45083H5.25059C5.69551 5.45083 6.0955 5.7476 6.19609 6.25919L7.05988 10.8473L9.19345 5.45083L11.3479 5.45077ZM19.8412 10.7885C19.8508 8.69752 16.9478 8.58369 16.9687 7.64822C16.9743 7.36269 17.245 7.06051 17.8377 6.98422C18.132 6.94505 18.942 6.91638 19.8601 7.33781L20.2199 5.65761C19.726 5.47834 19.091 5.30664 18.3019 5.30664C16.2752 5.30664 14.8483 6.38467 14.8363 7.92715C14.823 9.06784 15.8543 9.70433 16.6321 10.0842C17.4309 10.4729 17.6979 10.7211 17.6951 11.0697C17.6899 11.6017 17.0578 11.8343 16.4683 11.8447C15.4371 11.8608 14.8389 11.566 14.3613 11.3436L13.99 13.0816C14.4684 13.3012 15.3543 13.492 16.2712 13.5032C18.4252 13.5032 19.8344 12.4366 19.8412 10.7885ZM25.1934 13.3779H27.0905L25.4352 5.45071H23.6839C23.2903 5.45071 22.9586 5.68022 22.8108 6.03178L19.7355 13.3778H21.888L22.3152 12.1939H24.9464L25.1934 13.3779ZM22.9052 10.5693L23.985 7.59279L24.6062 10.5693H22.9052ZM14.2785 5.45077L12.5818 13.3779H10.5308L12.2279 5.45071H14.2785V5.45077Z" fill="white"/>
</svg>
