<svg width="32" height="32" viewBox="0 0 32 32" fill="none" xmlns="http://www.w3.org/2000/svg">
<circle cx="15.6819" cy="15.5455" r="14.5" fill="white"/>
<path d="M18.7412 16.4102C18.6397 16.3033 18.5122 16.2246 18.3712 16.1817C18.2302 16.1389 18.0804 16.1333 17.9366 16.1655C17.7928 16.1978 17.6598 16.2668 17.5506 16.3658C17.4414 16.4648 17.3597 16.5904 17.3136 16.7304C17.2406 16.9279 17.0986 17.0924 16.9137 17.1932C16.7289 17.2941 16.5137 17.3246 16.3081 17.279C15.3924 17.0506 14.1585 15.8514 13.9301 14.903C13.8743 14.6967 13.9002 14.4769 14.0023 14.2892C14.1045 14.1016 14.2752 13.9605 14.4787 13.8955C14.6161 13.8493 14.7394 13.7687 14.837 13.6614C14.9345 13.5541 15.0029 13.4236 15.0358 13.2824C15.0687 13.1412 15.065 12.9939 15.0249 12.8546C14.9849 12.7152 14.9099 12.5884 14.8071 12.4862L13.5263 11.2054C13.358 11.0508 13.1378 10.965 12.9093 10.965C12.6808 10.965 12.4606 11.0508 12.2924 11.2054L11.4236 12.0783C10.5548 12.992 11.5153 15.4149 13.667 17.5645C15.8186 19.7141 18.2375 20.7175 19.1511 19.8079L20.02 18.9391C20.1717 18.7715 20.2558 18.5534 20.2558 18.3273C20.2558 18.1011 20.1717 17.8831 20.02 17.7154L18.7412 16.4102Z" fill="#363744"/>
<path d="M15.6819 0.0454559C12.6163 0.0454559 9.61953 0.954516 7.07056 2.65768C4.5216 4.36084 2.53492 6.78162 1.36176 9.61387C0.188601 12.4461 -0.118351 15.5627 0.47972 18.5694C1.07779 21.5761 2.55403 24.3379 4.72174 26.5056C6.88946 28.6734 9.6513 30.1496 12.658 30.7477C15.6647 31.3457 18.7813 31.0388 21.6135 29.8656C24.4458 28.6925 26.8665 26.7058 28.5697 24.1568C30.2729 21.6079 31.1819 18.6111 31.1819 15.5455C31.1819 11.4346 29.5489 7.49212 26.6421 4.58531C23.7353 1.67849 19.7928 0.0454559 15.6819 0.0454559ZM15.6819 23.7034C14.0861 23.7064 12.525 23.2373 11.1951 22.3553L8.06039 23.3587L9.08013 20.328C8.19924 19.1108 7.67166 17.6738 7.55557 16.1758C7.43948 14.6777 7.73939 13.1766 8.42222 11.8382C9.10506 10.4997 10.1443 9.37584 11.4253 8.59051C12.7063 7.80517 14.1793 7.38889 15.6819 7.38757C17.8455 7.38757 19.9205 8.24706 21.4504 9.77697C22.9803 11.3069 23.8398 13.3819 23.8398 15.5455C23.8398 17.7091 22.9803 19.7841 21.4504 21.314C19.9205 22.8439 17.8455 23.7034 15.6819 23.7034Z" fill="#363744"/>
</svg>
