<svg width="23" height="23" viewBox="0 0 23 23" fill="none" xmlns="http://www.w3.org/2000/svg">
<path fill-rule="evenodd" clip-rule="evenodd" d="M17.25 23H5.75001C4.22501 23 2.76247 22.3942 1.68414 21.3159C0.605803 20.2376 0 18.775 0 17.25V5.75001C0 4.22501 0.605803 2.76247 1.68414 1.68414C2.76247 0.605803 4.22501 0 5.75001 0L17.25 0C18.775 0 20.2376 0.605803 21.3159 1.68414C22.3942 2.76247 23 4.22501 23 5.75001V17.25C23 18.775 22.3942 20.2376 21.3159 21.3159C20.2376 22.3942 18.775 23 17.25 23Z" fill="#00D264"/>
<path fill-rule="evenodd" clip-rule="evenodd" d="M10.7813 6.46876H17.25C18.0799 6.4698 18.8784 6.15183 19.4804 5.58062C20.0824 5.00941 20.4418 4.22867 20.4842 3.3999C20.5267 2.57113 20.249 1.75774 19.7085 1.12799C19.1681 0.498246 18.4063 0.10032 17.5806 0.0165313C17.4707 0.0104219 17.3618 0 17.25 0H5.75001C4.22501 0 2.76247 0.605803 1.68414 1.68414C0.605803 2.76247 0 4.22501 0 5.75001L0 17.25C0 14.3907 1.13588 11.6484 3.15776 9.62652C5.17964 7.60464 7.92189 6.46876 10.7813 6.46876Z" fill="#00EB78"/>
<path fill-rule="evenodd" clip-rule="evenodd" d="M17.25 11.5C16.1128 11.5 15.0011 11.8372 14.0555 12.4691C13.1099 13.1009 12.3729 13.9989 11.9377 15.0496C11.5025 16.1003 11.3886 17.2564 11.6105 18.3718C11.8324 19.4872 12.38 20.5117 13.1841 21.3159C13.9883 22.12 15.0128 22.6677 16.1282 22.8895C17.2436 23.1114 18.3998 22.9975 19.4504 22.5623C20.5011 22.1271 21.3991 21.3901 22.031 20.4445C22.6628 19.499 23 18.3873 23 17.25V5.75C23 7.275 22.3942 8.73753 21.3159 9.81587C20.2375 10.8942 18.775 11.5 17.25 11.5Z" fill="#00B950"/>
<path fill-rule="evenodd" clip-rule="evenodd" d="M7.78881 16.9241C7.88447 16.8969 7.98473 16.8898 8.08326 16.9033C8.18179 16.9167 8.27646 16.9505 8.36129 17.0024C9.79019 17.8537 11.4809 18.1536 13.1154 17.8457C14.7499 17.5378 16.2156 16.6433 17.2369 15.3304C18.2581 14.0176 18.7644 12.3768 18.6606 10.7168C18.5569 9.05675 17.8502 7.49183 16.6735 6.31634C15.4967 5.14086 13.931 4.43582 12.2709 4.33383C10.6108 4.23184 8.97055 4.73993 7.65878 5.76254C6.34701 6.78514 5.45406 8.2518 5.14789 9.88664C4.84172 11.5215 5.14342 13.2119 5.99624 14.6399C6.04795 14.7244 6.08155 14.8188 6.09491 14.9171C6.10828 15.0153 6.10111 15.1152 6.07387 15.2106C5.8737 15.9189 5.3907 17.6094 5.3907 17.6094L7.78881 16.9241ZM4.75065 15.3575C3.72313 13.6255 3.36326 11.5779 3.73862 9.59927C4.11397 7.62066 5.19872 5.84712 6.78918 4.6117C8.37964 3.37628 10.3664 2.76397 12.3764 2.88974C14.3863 3.01551 16.2813 3.87072 17.7053 5.29476C19.1294 6.71881 19.9846 8.61374 20.1103 10.6237C20.2361 12.6337 19.6238 14.6204 18.3884 16.2109C17.153 17.8014 15.3794 18.8861 13.4008 19.2615C11.4222 19.6368 9.3746 19.2769 7.64254 18.2494C7.64254 18.2494 5.35081 18.9042 4.2159 19.2287C4.15424 19.2463 4.08901 19.2471 4.02696 19.231C3.9649 19.2149 3.90828 19.1825 3.86294 19.1371C3.81761 19.0918 3.78522 19.0352 3.76911 18.9731C3.75301 18.9111 3.75378 18.8458 3.77135 18.7842L4.75065 15.3575Z" fill="white"/>
<path fill-rule="evenodd" clip-rule="evenodd" d="M7.89952 8.90746C8.01129 10.5167 8.69806 12.032 9.83446 13.1769C10.9708 14.3217 12.4811 15.0197 14.0894 15.1433H14.0901C14.3469 15.1632 14.605 15.1273 14.8465 15.0379C15.0881 14.9486 15.3075 14.808 15.4895 14.6258L15.7404 14.375C15.8588 14.2565 15.9254 14.0958 15.9255 13.9283V13.3957C15.9254 13.3289 15.9068 13.2635 15.8717 13.2067C15.8366 13.1499 15.7864 13.1039 15.7267 13.0741L14.1243 12.273C14.0568 12.2392 13.9804 12.2275 13.9059 12.2396C13.8314 12.2516 13.7626 12.2868 13.7092 12.3402L13.012 13.0374C12.9702 13.0792 12.9187 13.1101 12.8621 13.1273C12.8055 13.1445 12.7455 13.1474 12.6875 13.1359L12.6842 13.1352C11.9885 12.996 11.3495 12.654 10.8478 12.1523C10.346 11.6506 10.0041 11.0116 9.86495 10.3159L9.86423 10.3126C9.85269 10.2546 9.85565 10.1946 9.87282 10.138C9.89 10.0814 9.92087 10.0299 9.9627 9.9881L10.6599 9.29091C10.7133 9.23755 10.7485 9.16873 10.7605 9.09423C10.7726 9.01973 10.7609 8.94332 10.7271 8.87584L9.92604 7.27338C9.89615 7.21367 9.85024 7.16345 9.79343 7.12835C9.73663 7.09325 9.67117 7.07466 9.6044 7.07465H9.15158C9.04406 7.07468 8.93774 7.09727 8.83949 7.14098C8.74125 7.18468 8.65328 7.24852 8.58126 7.32836L8.34263 7.59358C8.18572 7.76772 8.06546 7.97165 7.98902 8.19324C7.91259 8.41483 7.88154 8.64954 7.89772 8.88338L7.89952 8.90746Z" fill="white"/>
</svg>
