<svg width="32" height="32" viewBox="0 0 32 32" fill="none" xmlns="http://www.w3.org/2000/svg">
<path d="M15.6819 31.0455C7.12278 31.0455 0.181885 24.1046 0.181885 15.5455C0.181885 6.98636 7.12278 0.0454559 15.6819 0.0454559C24.241 0.0454559 31.1819 6.98636 31.1819 15.5455C31.1819 24.1046 24.241 31.0455 15.6819 31.0455Z" fill="#363744"/>
<path d="M25.5461 10.5576C25.3105 9.66475 24.613 8.96415 23.7264 8.72545C22.1206 8.29145 15.685 8.29145 15.685 8.29145C15.685 8.29145 9.24629 8.29145 7.64359 8.72545C6.75699 8.96415 6.05949 9.66475 5.82389 10.5576C5.38989 12.1727 5.38989 15.5455 5.38989 15.5455C5.38989 15.5455 5.38989 18.9183 5.82079 20.5334C6.05639 21.4262 6.75389 22.1268 7.64049 22.3655C9.24629 22.7995 15.6819 22.7995 15.6819 22.7995C15.6819 22.7995 22.1206 22.7995 23.7233 22.3655C24.6099 22.1268 25.3074 21.4262 25.543 20.5334C25.9739 18.9183 25.9739 15.5455 25.9739 15.5455C25.9739 15.5455 25.9739 12.1727 25.5461 10.5576ZM13.577 18.6052V12.4858L18.9555 15.5455L13.577 18.6052Z" fill="white"/>
</svg>
